<?xml version="1.0" encoding="UTF-8"?>
<svg id="Layer_1" data-name="Layer 1" xmlns="http://www.w3.org/2000/svg" viewBox="0 0 981.94 982">
  <defs>
    <style>
      .cls-1 {
        fill: #057480;
      }

      .cls-2 {
        fill: #0d004d;
      }
    </style>
  </defs>
  <path class="cls-2" d="m388.78,969.68c-5.82-1.27-11.63-2.53-17.44-3.8-1.64-5.36-8.94-.82-10.17-6.36-7.88.79-14.31-1.65-20.79-6.69-2.34.13-5.44.3-8.55.47-3.5-1.37-6.99-2.75-10.49-4.12-1.39-2.73-4.13-1.51-6.24-2.14-.74-.33-1.48-.66-2.22-.99-5.12-2.45-10.25-4.9-15.38-7.35-21.11-6.37-39.37-18.48-58.43-29-1.97-3.89-3.86-7.93-9.5-6.04-8.25-5.85-16.49-11.71-24.73-17.56.19-1.33.08-2.31-1.64-1.4-1.71-1.37-3.41-2.74-5.11-4.11-.38-2.6-.76-5.21-4.45-3.15-1.85-1.3-3.69-2.59-5.54-3.88-.39-4.38-3.37-5.61-7.15-5.85-4.07-3.3-8.13-6.6-12.2-9.9-3.79-6.61-10.34-10.47-15.58-15.62-4.53-4.29-9.07-8.59-13.6-12.88-4.11-6.29-9.27-11.63-15.05-16.38-.29-.1-.58-.2-.87-.3,0,0-.02-.31-.02-.31l-.31.1c-1.32-3.16-5.58-4.39-5.57-8.43,0-1.18,0-2.36,0-3.68-4.41-1.06-4.52-7.13-9.45-7.27-3.77-4.92-7.54-9.83-11.31-14.75-2.6-8.18-5.06-16.46-13.91-20.38-8.27-9.18-12.82-20.59-18.66-31.21-2.36-4.29-4.59-8.66-6.88-12.99-1.55-5.12-2.19-10.76-7.83-13.5-.75-2.15-1.5-4.3-2.24-6.45,0-2.48,0-4.97,0-7.43-1.06-.91-1.98-1.7-2.92-2.5-.2-1.42-.39-2.77-.51-3.67-1.22-1.16-2.12-2-2.78-2.63-.23-5.25-4.63-8.99-3.04-13.91-1.31-1.24-2.3-2.17-3.13-2.96-.57-2.83-.07-6.08-4.07-6.39-5.83-19.95-12.59-39.69-17.22-59.92-3.9-17.03-5.38-34.62-7.86-51.97-4.29-30.05-1.5-60.26-1.6-90.39-.03-8.73,1.72-17.47,2.65-26.21,2.95-5.5,4.68-11.25,3.71-17.58,3.27-15.6,6.53-31.21,9.81-46.81.41-1.38.81-2.76,1.2-4.14.12-.27.25-.54.37-.81,4.69-5.11,6.62-11.14,5.97-18.03,4.04-11.54,8.03-23.09,12.15-34.6.57-1.59,1.74-2.97,2.62-4.45.36-.03.71-.06,1.07-.09-.09-.3-.19-.6-.28-.9-.16-.44-.32-.89-.47-1.33.2-.21.19-.4-.04-.57.46-.72.92-1.43,1.38-2.15,3.98-2.91,5.73-7.13,7.08-11.99.68-.56,1.63-1.33,2.49-2.03.19-1.68.36-3.19.51-4.56,1.05-.95,1.96-1.77,2.86-2.57.18-1.48.34-2.84.51-4.23.98-.82,1.92-1.6,3.12-2.6-1.6-4.48,6.18-6.46,3.02-11.6,3.58-6.01,7.15-12.02,10.73-18.03,4.17-1.39,6.14-4.15,5.32-8.62,2.12-3.31,4.25-6.62,6.37-9.92,4.76-1.71,7.7-4.69,7.04-10.16,10.98-15.23,21.85-30.55,35.8-43.32,6.4-6.02,13.05-11.8,19.14-18.13,4.4-4.58,10.28-7.92,12.72-14.26.46-.39.91-.78,1.37-1.17,3.17.17,4.69-1.35,4.58-4.51,1.92-1.78,3.85-3.56,5.77-5.33,2.13-1.41,5.36-1.78,5.13-5.42,2.98-2.18,5.96-4.37,8.94-6.55.36-.09.72-.19,1.08-.29,4.92-4.1,9.84-8.2,14.76-12.29,6.44-.28,9.68-4.85,12.8-9.56.76-.39,1.52-.78,2.28-1.16,6.27.86,10.23-4.65,16.13-5.71.98-4.34,7.58-4.36,7.57-9.75,7.12-3.83,14.25-7.67,21.37-11.5,3.73.87,5.92-.94,7.3-4.18,2.08-1.79,4.45-2.63,7.14-2.03,4.38-4.86,10.16-6.78,15.89-8.79,0,0,.28.08.28.08l-.06-.27c.5-.2.99-.4,1.49-.6,2.25-.49,5.31.78,6.15-2.81.76-.45,1.52-.91,2.27-1.35,4.81-.89,9.62-1.78,10.65-1.97,11.69-4.36,19.84-7.47,28.04-10.45,6.91-2.51,13.87-4.88,20.81-7.31,12.3-3.98,24.7-7.53,37.55-9.25,4.66,0,9.32,0,14.62,0,.35-.71.91-1.86,1.48-3.02,51.83-6.79,103.64-6.14,155.45.19,3.21,2.84,7.09,2.81,11.02,2.53,8.72,2.02,17.37,4.49,26.18,5.97,20.78,3.51,40.44,10.56,59.99,18.06,2.11,4.22,6.49,5.04,10.27,6.16,14.9,4.44,27.59,13.31,42.31,19.9,3.33-1.81,5.34,4.65,9.56,2.97,8.31,5.09,16.62,10.19,24.93,15.28,4.02,2.89,6.61,8.07,12.57,7.89.49.52.97,1.05,1.46,1.57.95.58,1.91,1.17,2.87,1.76.71.7,1.42,1.39,2.13,2.09,1.04,1.37,2.08,2.73,3.31,4.35-3.67.65-4.79-4.29-8.23-2.52-.24-.14-.42-.32-.53-.57-.14-4.02-3.07-2.73-5.29-2.79-9.09-5.67-18.19-11.34-27.17-16.93-2.79,1.67-4.88,2.91-6.96,4.16-8.66,2.82-12.98,10.69-19,16.53-7.39,7.17-14.27,14.87-21.37,22.34-4.63,4.43-9.26,8.87-13.89,13.3-2.62-.18-5.24-.36-8.35-.58-.27-3.45-3.2-2.92-5.56-3.31-.86-1-1.67-1.93-2.63-3.04-6.35.98-10.75-3.62-16.12-5.59-7.16-2.62-14.8-3.95-22.23-5.84-6.01-1.66-12.02-3.32-18.03-4.98-1.95-5.43-6.73-2.3-10.13-3.36-6.69-1.33-13.38-2.66-20.07-3.99-3.29-6-8.31-2.56-12.74-2.32-1.8-.03-3.66.21-5.4-.13-37.75-7.22-75.72-4.93-113.69-2.65-.43.07-.85.14-1.28.2-.48.13-.96.26-1.45.39-.67.14-1.33.27-2,.41-11.07,1.64-22.13,3.28-33.2,4.92,0,0,0-.34,0-.34l-.31-.11c-.2-2.74-.58-5.47-.58-8.21-.05-24.59-.03-49.17-.03-73.98-5.58-.29-10.59-.07-15.14,2.82l-.24.11.16.22c-.05,1.83-.11,3.67-.16,5.5.02,1.95.04,3.9.05,5.84,0,1.72,0,3.45,0,5.17,0,17.81,0,35.62-.01,53.43,0,1.16,0,2.32.01,3.48,0,3.09,0,6.17.01,9.26.44,4.68-3.34,3.09-5.6,3.77-3-.35-6-.7-8.74-1.03-1.31,1.46-2.2,2.46-2.76,3.08-2.26,1.12-5.71-.58-5.44,3.47-1.1.28-2.19.55-3.29.83-2.81.13-5.63.27-8.79.41-.63,4.04-6.86.46-7.26,5.31-1.58.67-3.17,1.33-4.75,2-2.53-1.03-5.11-2.16-5.39,2.23-.71.41-1.42.81-2.13,1.22-1.87-1.36-3.25-1.4-3.59,1.34-14.2,7.41-28.39,14.82-42.59,22.23-3.45-.06-5.67,2.1-7.83,4.35-8.86,6.35-17.71,12.71-26.57,19.06-2.47-.24-4.27.47-4.6,3.26-.26.23-.51.46-.77.69-.51.44-1.03.89-1.54,1.33-.61.41-1.22.82-1.83,1.22-1.44-.07-2.37.45-2.38,2.04-.56.45-1.12.91-1.69,1.36-4.71-.26-6.78,2.71-8.13,6.6.02.31-.13.45-.44.43-2.02-.59-2.45.57-2.44,2.22l-32.16,31.95c-2.27.15-3.25,1.59-3.65,3.63-.11.25-.28.43-.52.55-2.38,1.17-5.33,1.77-5.28,5.34-.09.26-.27.44-.54.53-2.28.76-4.62,1.44-4.46,4.58-6.34,9.08-12.67,18.16-19.01,27.24-1.78.09-2.28,1.12-2,2.72-.08.27-.24.49-.48.65-.37.4-.73.8-1.1,1.21-.11.24-.28.42-.52.53-2.49,1.29-5.82,2.08-3.77,6.16-11.54,14.35-17.14,32.14-27.61,48.79-.41,6.3-6,12.26-7.95,19.62-4.43-.29-2.08,3.71-3.71,5.69-.59.52-1.51,1.33-2.91,2.55.43,1.96.9,4.1,1.37,6.24-.48,1.87-.96,3.75-1.44,5.62-4.59.69-1.78,7.02-6.76,7.56.55,2.87,1.02,5.29,1.48,7.7-.49,1.61-.97,3.22-1.46,4.82-4.35,1.65-3.31,4.67-1.99,7.77-.21.74-.42,1.47-.64,2.21-1.5.64-1.49,1.28,0,1.9-1.37,6.08-2.73,12.16-4.1,18.24-4.96.96-2.8,4.18-2.18,6.91-.4,4.4-.79,8.8-1.19,13.2-5.32,1.77-2.67,5.43-2.03,8.61-.59,9.9-1.64,19.8-1.66,29.71-.05,19,.48,37.99.77,56.99-.91,6.12-3.07,12.34,1.57,17.97.89,6.31,1.78,12.61,2.68,18.92-.92,2.3-2.28,4.7,1.31,6.03,1.81,7.75,3.63,15.49,5.44,23.24-.86,2.75-2.98,5.85,1.97,6.96.47,1.86.93,3.72,1.4,5.58-.4,2.16-.81,4.32-1.17,6.25,1.45,1.35,2.44,2.27,3.38,3.14.18,1.81.34,3.45.49,4.96,1.05.92,1.96,1.73,2.94,2.58-.64,6.38,3.57,10.91,5.89,16.15,1.7,3.79,3.4,7.57,5.1,11.36-3.67,5.31,3.51,8.12,2.75,12.85,1.12.86,2.21,1.7,2.64,2.04.95,2.66-.39,5.82,3.46,5.41,7.4,12.78,14.79,25.56,22.19,38.34-.58,1.8-.65,3.36,1.77,3.73l1.37,1.59c.34.34.68.69,1.01,1.03.21.23.41.45.62.68,5.16,9.95,10.61,19.69,19.64,26.81.74,1.08,1.47,2.17,2.21,3.25.49,4.33,3.42,6.67,6.97,8.5.77.75,1.55,1.5,2.32,2.25.99,2.99,3.26,4.76,5.9,6.18,9.2,9.16,18.4,18.33,27.6,27.49,4.29,4.82,7.26,11.17,14.55,12.5.66.67,1.33,1.33,1.99,2,.37.25.74.49,1.11.74.23.17.47.34.7.51,2.7,2.87,4.57,6.84,9.3,7.01.79.6,1.59,1.19,2.38,1.79,1.13,5.14,5.17,6.02,9.5,6.47.22.17.44.35.66.52.34,2.04,1.49,3.03,3.6,2.76.5.44,1,.88,1.5,1.32.67,2.25,2.61,1.88,4.28,2.08l4.18,2.93c.53,1.88.59,4.58,3.63,2.08l2.09,1.35c.4.35.79.71,1.19,1.06.23.13.42.31.54.54.55,2.09,1.69,2.71,3.59,1.42,1,.68,2.01,1.36,3.01,2.04.42.33.85.66,1.27.99,2.98,1.82,5.95,3.65,8.93,5.47-.13,3.4,2.99,1.5,5.68,3.97,2.58,1.2,6.75,3.49,11.17,5.05,2.25.79,3.65,5.25,7.03,1.97,4.31,1.98,8.61,3.97,12.92,5.95.48,2.53,1.78,2.67,3.61,1.23.72.42,1.45.84,2.17,1.26,1.24,4.37,4.49,2.81,7.33,2.49,1.19.56,2.38,1.11,3.58,1.67,4.66,3.83,9.6,6.79,16.02,5.29,1.29.57,2.58,1.14,3.88,1.71.24.11.47.23.71.34,3.43.93,6.87,1.85,10.3,2.78l.03.18.11,2.27c0,.91,0,1.81,0,2.72,0,2.45,0,4.89,0,7.34,0,18.76,0,37.51,0,56.27l-.05,2.36c-.06.1-.19.22-.17.31.03.23.12.45.19.67.04,2.39.08,4.78.11,7.18l-.19.17.2.16c3.55,5.88,9.16,3.27,14.1,3.42.35-.34.7-.69,1.04-1.03,0-25.63,0-51.26,0-78.23,13.7,2.58,26.48,4.99,39.26,7.4.59.23,1.18.47,1.78.7,33.76,1.57,67.51,1.44,101.27.02,3.39.13,7.07,1.23,9.25-2.74,1.04-.23,2.08-.46,3.12-.7,6.16.62,12.82,4.55,17.78-2.7,1.33-.2,2.67-.41,4-.61,3.05,1.24,5.81,1.31,7.72-1.96,3.28-.7,6.55-1.39,9.83-2.09,6.1,3.82,10.13-5.21,16.2-2,.76-1.41,1.32-2.43,1.87-3.45,1.29-.18,2.58-.35,3.87-.53,2.87-.3,6.18.63,7.86-2.9,5.08-1.91,9.91-4.64,15.75-4.49,1.53-3.91,6.69-1.94,8.7-5.3,3.02-.16,6.03-.32,9.41-.5.5-3.51,3.42-3.23,5.66-3.86.99-1.17,1.88-2.22,2.83-3.33,2.2-.11,4.4-.21,6.6-.32,6.64,2.76,10.58,8.52,15.09,13.64,4.26,7.65,10.14,13.46,18.57,16.39l3.01,2.64c.57.56,1.13,1.13,1.7,1.69,6.49,6.21,12.98,12.41,19.46,18.62,1.57.65,3.15,1.3,4.53,1.88,0,1.63,0,2.81,0,3.99-.21.16-.41.33-.61.49-5.62.73-10.77,2.33-14.04,7.47-18.64,10.18-37.81,19.34-57.92,26.05-23.84,7.96-47.37,17.16-72.39,21.17-4.16-.35-8.33-.69-12.12-1-1.31,1.44-2.14,2.35-2.92,3.21-6.35,1-13.27-1.42-18.64,3.73-26.86,4.37-53.96,4-81.03,3.96-4.5-.16-9-.31-13.49-.46-15.8-.21-31.41-2.16-46.9-5.2-3.81-.75-7.68-1.22-11.52-1.82-5.04-4.49-11.15-3.17-17.03-3.11Z"/>
  <path class="cls-2" d="m980.53,504.22c1.11.95,1.14,1.9.02,2.85-.02,2.4-.03,4.8-.05,7.2,2.53,4.09.28,8.5.84,12.72,0,.54,0,1.09,0,1.64-.28,3.83-.57,7.66-.85,11.49-1.16-1.44-2.51-2.14-4.03-.83-1.49-2.72,1.1-5.93-1.76-8.11.45-3.78,1.26-7.56,1.28-11.33.13-37.85,1.12-75.75-5.57-113.27-.43-3.27-.51-6.65-1.39-9.8-.92-3.27.98-7.67-3.53-9.62-2.11-8.91-4.22-17.82-6.33-26.73.36-4.88-.4-9.5-3.26-13.61-.89-2.68-1.79-5.36-2.68-8.04-1.18-5.45-.83-11.51-6.02-15.39-4.33-13.11-9.34-25.95-15.71-38.23,2.42-2.16,3.11,1.67,4.47,1.29,2.39,3.75,4.56,7.16,6.74,10.58.5,1.26,1.01,2.52,1.51,3.77.26.32.52.65.78.98,1.49,4.25,2.98,8.49,4.46,12.73,2.19,3.35-.25,8.69,4.66,10.88.32,1.02.64,2.04.96,3.06-.96.99-.44,1.19.59,1.1.7,2.84,1.39,5.68,2.09,8.52.19.22.38.45.58.67.3,1.3.6,2.61.89,3.91-1.04,1.16-.77,1.82.77,1.99.23.15.39.36.47.62.29.64.57,1.29.86,1.93.31,1.26.61,2.52.91,3.78-1.87,1.88-.94,2.93,1.07,3.66.92,3.39,1.85,6.78,2.77,10.17-.05.1-.16.24-.13.31.09.2.23.38.35.56.48,2.39.96,4.78,1.44,7.16-.49,3.61-1,7.24,2.98,9.44.11,1.32.23,2.65.34,3.97-.27,3.78-.21,7.47,2.93,10.29.22,2.11.44,4.22.66,6.34-.24.22-.48.44-.72.66.38.16.75.32,1.13.48.44,3.08.89,6.17,1.33,9.25.56,5.9.28,11.94,2.93,17.49.18,1.05.36,2.11.53,3.15.1,1.16.21,2.32.31,3.48.28,12.38.55,24.76.82,37.14-.15,9.89-.3,19.79-.45,29.69Z"/>
  <path class="cls-2" d="m793,877.87c-4.91,3.84-9.83,7.68-14.74,11.52-2.01.11-4.03.22-6.42.35,5.9-6.34,14.03-9.02,18.36-16.13.23-.16.46-.31.69-.47.59-.41,1.17-.83,1.76-1.24.8-.73,1.59-1.45,2.39-2.18,6.22.1,8.59-4.54,11.1-9.01.65-.6,1.3-1.2,1.95-1.79,1.32-1.12,2.63-2.23,3.95-3.35,1.25-1.16,2.5-2.32,3.75-3.49.41-.45.83-.9,1.24-1.34,14.66-14.91,29.31-29.82,43.97-44.73,3.98-3.07,9.08-5.21,9.36-11.33.58-.65,1.15-1.3,1.73-1.95,1.1.15,2.13.25,1.18-1.37.45-.67.9-1.33,1.36-2,4.13-3.21,8.99-5.84,9.29-12.01.15-.22.31-.44.46-.65.39-.37.78-.73,1.17-1.1.44-.82.88-1.65,1.31-2.47,2.39.41,3.34-.31,2.11-2.72,5.27-7.95,10.54-15.9,15.81-23.85,3-1.75,5.39-3.89,5.02-7.81,5.71-10.58,11.41-21.16,17.12-31.73,1.05-2.95,5.66-4.29,3.82-8.53,1.27-2.99,2.53-5.97,3.8-8.96,3.43-.73,2.21,3.6,4.5,4.13-12.23,27.22-27.44,52.73-44.11,77.4-.55.63-1.1,1.27-1.65,1.91-.18.22-.36.43-.53.65-.38.62-.77,1.24-1.15,1.87-.16.23-.31.46-.47.68-1.54.35-3.69.19-2.39,2.89-2.51,3.57-5.03,7.15-7.54,10.72-3.56.65-5.29,2.99-5.87,6.38-.57.9-1.13,1.8-1.7,2.69-.43.56-.85,1.12-1.28,1.68-1.63,1.9-3.26,3.81-4.88,5.71-6.68,6.4-13.62,12.54-19.92,19.29-3.2,3.43-8.22,5.47-9.18,10.82l-.06.3s-.3.06-.3.05c-7.44,4.46-13.56,10.3-18.2,17.65-1.05,1.01-2.1,2.02-3.15,3.03-1.24-.29-2.17-.22-1.74,1.47-5.11,6.52-11.67,11.4-18.26,16.26-2.39-.64-3.41.55-3.67,2.75Z"/>
  <path class="cls-2" d="m918.83,249.17c4.4,7.99,8.79,15.98,13.19,23.97-1.05,2.43-2.1,4.86-3.15,7.28-.71-1.18-1.42-2.36-2.12-3.54.45-.29.91-.59,1.36-.88l-1.98-1.96c-7.97-14.28-15.95-28.56-24.35-43.61-2.05-.62-2.49-3.49-3.46-6l-2.42-3.47c-.86-1.1-1.71-2.2-2.57-3.31-.58-2.8-1.37-5.46-4.36-6.68-.58-.39-1.16-.79-1.75-1.18,0,0-.02-.32-.02-.32l-.3.13c-2.41-3.59-4.81-7.18-7.22-10.78-1.48-4.29-3.21-8.4-7.84-10.3-.75-.69-1.5-1.38-2.25-2.07,0-4.03-2.47-6.03-5.96-7.17-2.45-2.98-4.89-5.95-7.34-8.93.02-3.63-2.53-5-5.39-6.1-.34,0-.52-.18-.53-.53-1.52-4.12-4.94-6.48-8.29-8.89-4.87-4.48-9.73-8.95-14.6-13.43,0,0,.1.02.1.02-.44-.85-.88-1.7-1.32-2.55-.37-.24-.74-.48-1.11-.71-.21-.2-.41-.39-.62-.59-4.28-7.23-10.2-12.63-17.87-16.08-2.77-2.34-5.54-4.67-8.31-7.01,1.31-2.43-4.34-4.42-.45-7.01l.38.04s.08.37.08.37c.92,1.7,1.84,3.4,2.76,5.1-.05.12-.1.24-.14.36.07-.1.13-.21.2-.31,2.72.21,3.86,4.15,7.14,3.04,10.46,9.74,20.72,19.7,31.41,29.17,15.29,13.55,27.44,29.86,40.67,45.22.51.59.68,1.48,1.01,2.22,1.95,6.42,6.92,10.74,10.92,15.74.9.99,1.8,1.98,2.69,2.96-.43,2.26.78,3.23,2.79,3.59.16.25.33.51.49.76-.57,3.03.67,4.99,3.54,5.99,3,4.43,6.01,8.85,9.01,13.28,1.57,5.31,2.91,10.77,7.94,14.14Z"/>
  <path class="cls-2" d="m977.68,558.02c-3.98,28.55-9.05,56.84-19.37,83.94-2.34,6.16-3.92,12.61-5.85,18.92-2.3,2.84-4.49,5.74-4.55,9.95-.98.35-2.02.73-3.15,1.14-.33-2.1-.58-3.72-.83-5.34.8-1.87,1.6-3.74,2.39-5.6,2.15,0,1.55-1.08.87-2.2.29-.65.59-1.3.88-1.96,4.5-1.5,2.58-5.53,3.36-8.5,2.17-8.2,3.7-16.65,6.64-24.56,8.52-22.91,10.62-47.17,15.74-70.79h2.7c.46,1.96.81,3.48,1.17,5Z"/>
  <path class="cls-1" d="m790.2,873.61c-4.33,7.1-12.46,9.79-18.36,16.13,2.39-.13,4.4-.24,6.42-.35-12.93,9.69-26.74,17.98-40.85,25.8,0-1.18,0-2.36,0-4-1.38-.57-2.96-1.23-4.53-1.88,9.56-1.07,16.17-7.88,23.73-12.64,11.48-7.23,22.42-15.33,33.59-23.07Z"/>
  <path class="cls-1" d="m797.92,107.49c-3.9,2.59,1.75,4.58.45,7.01-9.32-7.06-18.64-14.13-27.96-21.19,3.43-1.78,4.55,3.16,8.22,2.51-1.23-1.62-2.27-2.98-3.31-4.35,8.38,4.15,16.05,9.29,22.6,16.02Z"/>
  <path class="cls-1" d="m731.36,62.89c-4.22,1.68-6.23-4.78-9.56-2.97-14.72-6.59-27.41-15.45-42.31-19.9-3.78-1.13-8.16-1.94-10.27-6.16,21.65,7.67,42.33,17.42,62.14,29.03Z"/>
  <path class="cls-1" d="m362.93,19.38c-6.94,2.43-13.9,4.8-20.81,7.31-8.2,2.98-16.35,6.08-28.04,10.45-1.02.19-5.84,1.08-10.65,1.97,19.5-7.57,38.57-16.45,59.5-19.73Z"/>
  <path class="cls-1" d="m31.03,654.26c4,.31,3.5,3.56,4.07,6.39.83.79,1.82,1.72,3.13,2.96-1.59,4.92,2.81,8.67,3.04,13.91.66.62,1.56,1.47,2.78,2.63.13.89.31,2.25.51,3.67.93.8,1.86,1.6,2.92,2.5,0,2.46,0,4.95,0,7.43-6.89-12.58-11.94-25.92-16.45-39.49Z"/>
  <path class="cls-1" d="m64.08,254.74c3.17,5.14-4.62,7.12-3.02,11.6-1.2,1-2.14,1.78-3.12,2.6-.17,1.39-.33,2.75-.51,4.23-.89.81-1.81,1.63-2.86,2.57-.15,1.37-.32,2.87-.51,4.56-.86.7-1.81,1.47-2.49,2.03-1.35,4.86-3.1,9.09-7.08,11.99,5.32-13.79,12.22-26.81,19.58-39.59Z"/>
  <path class="cls-1" d="m977.68,558.02c-.35-1.52-.71-3.04-1.17-5-.72,0-1.71,0-2.7,0,.29-7.28.58-14.56.88-21.84,2.86,2.17.28,5.39,1.77,8.11,1.52-1.3,2.87-.61,4.03.83-.94,5.97-1.88,11.93-2.81,17.9Z"/>
  <path class="cls-1" d="m838.38,836.35c.96-5.35,5.98-7.39,9.18-10.82,6.3-6.75,13.25-12.9,19.92-19.29-7.85,11.83-17.62,21.79-29.1,30.11Z"/>
  <path class="cls-1" d="m161.2,132.3c-2.44,6.34-8.32,9.68-12.72,14.26-6.09,6.33-12.73,12.11-19.14,18.13,4.53-10.02,14.55-14.96,21.3-22.94,3.02-3.57,7.01-6.32,10.56-9.44Z"/>
  <path class="cls-1" d="m331.84,953.3c3.1-.17,6.2-.34,8.55-.47,6.48,5.04,12.91,7.48,20.79,6.69,1.23,5.54,8.53,1,10.17,6.36-13.17-4.2-26.34-8.39-39.5-12.58Z"/>
  <path class="cls-1" d="m928.86,280.42c1.05-2.43,2.1-4.86,3.15-7.28,2.68,8.36,9.29,14.97,10.67,23.9-2.18-3.42-4.35-6.84-6.74-10.58-1.36.38-2.05-3.44-4.47-1.28-.87-1.58-1.74-3.16-2.62-4.75Z"/>
  <path class="cls-1" d="m241.6,70.56c.01,5.39-6.6,5.41-7.57,9.75-5.9,1.06-9.86,6.57-16.13,5.71,7.9-5.16,15.8-10.31,23.7-15.46Z"/>
  <path class="cls-1" d="m558.76,976.32c5.38-5.16,12.3-2.74,18.64-3.73.78-.86,1.61-1.77,2.92-3.21,3.79.31,7.96.65,12.12,1-11.23,1.98-22.46,3.96-33.69,5.94Z"/>
  <path class="cls-1" d="m83.1,757.91c8.85,3.92,11.31,12.2,13.91,20.38-4.64-6.8-9.27-13.59-13.91-20.38Z"/>
  <path class="cls-1" d="m980.53,504.22c.15-9.9.3-19.8.45-29.69.84,9.91,1.75,19.83-.45,29.69Z"/>
  <path class="cls-1" d="m819.83,854.36c4.64-7.35,10.76-13.19,18.2-17.65-5.32,6.66-10.68,13.26-18.2,17.65Z"/>
  <path class="cls-1" d="m416.58,7.11c-.57,1.16-1.13,2.31-1.48,3.02-5.3,0-9.96,0-14.62,0,5.37-1.01,10.73-2.01,16.1-3.02Z"/>
  <path class="cls-2" d="m948.19,672.17c-1.64,3.46-3.29,6.92-4.93,10.38-3.7-.77-1.52-4.07-2.58-5.97.49-1.25.98-2.49,1.46-3.74,1.05.31,2.09.62,3.14.94,1-.55,1.96-1.07,2.91-1.6Z"/>
  <path class="cls-1" d="m948.19,672.17c-.95.52-1.91,1.05-2.91,1.6-1.05-.31-2.1-.63-3.14-.93.59-2.06,1.19-4.13,1.78-6.2.25,1.62.51,3.23.84,5.33,1.13-.41,2.18-.79,3.15-1.14.06-4.21,2.25-7.11,4.55-9.95.33,4.43-2.21,7.77-4.26,11.29Z"/>
  <path class="cls-1" d="m153.18,842.2c5.25,5.16,11.8,9.02,15.58,15.62-5.88-4.53-11.89-8.92-15.58-15.62Z"/>
  <path class="cls-1" d="m124.53,812.94c5.78,4.76,10.94,10.09,15.05,16.38-5.71-4.83-11.13-9.92-15.05-16.38Z"/>
  <path class="cls-1" d="m388.78,969.68c5.88-.05,11.98-1.38,17.03,3.11-5.68-1.03-11.35-2.07-17.03-3.11Z"/>
  <path class="cls-1" d="m722.76,923.15c3.27-5.15,8.43-6.74,14.04-7.47-4.68,2.49-9.36,4.98-14.04,7.47Z"/>
  <path class="cls-1" d="m49.73,700.2c5.64,2.75,6.29,8.39,7.83,13.5-2.61-4.5-5.22-9-7.83-13.5Z"/>
  <path class="cls-1" d="m939.06,693.66c-2.28-.52-1.06-4.86-4.5-4.12,1.03-2.13,2.05-4.26,3.08-6.4.11.11.23.22.35.33v4.91c1.79-.8,2.82-1.26,3.86-1.72-.93,2.34-1.86,4.67-2.78,7.01Z"/>
  <path class="cls-1" d="m892.35,208.45c-4-5-8.97-9.32-10.92-15.74,4.66,4.54,8.66,9.54,10.92,15.74Z"/>
  <path class="cls-1" d="m28.07,338.41c.65,6.89-1.28,12.92-5.97,18.03,1.99-6.01,3.98-12.02,5.97-18.03Z"/>
  <path class="cls-1" d="m215.62,87.18c-3.13,4.72-6.37,9.28-12.8,9.56,4.27-3.19,8.54-6.38,12.8-9.56Z"/>
  <path class="cls-1" d="m297.52,938.71c5.13,2.45,10.26,4.9,15.38,7.35-5.35-2-11.83-1.59-15.38-7.35Z"/>
  <path class="cls-1" d="m229.59,903.67c5.65-1.89,7.53,2.15,9.5,6.04-3.17-2.01-6.34-4.03-9.5-6.04Z"/>
  <path class="cls-1" d="m108.31,793.04c4.93.14,5.04,6.21,9.45,7.27,0,1.32,0,2.5,0,3.68-4.56-2.43-6.8-6.87-9.45-10.95Z"/>
  <path class="cls-1" d="m979.31,430.76c-2.65-5.55-2.37-11.59-2.93-17.49.98,5.83,1.95,11.66,2.93,17.49Z"/>
  <path class="cls-1" d="m10.72,408.19c.97,6.33-.76,12.08-3.71,17.58,1.24-5.86,2.47-11.72,3.71-17.58Z"/>
  <path class="cls-1" d="m918.83,249.17c-5.03-3.37-6.37-8.83-7.94-14.14,2.65,4.72,5.3,9.43,7.94,14.14Z"/>
  <path class="cls-1" d="m93.54,208.01c.66,5.47-2.28,8.44-7.04,10.16,2.35-3.39,4.69-6.77,7.04-10.16Z"/>
  <path class="cls-1" d="m768.85,86.06c-5.96.18-8.54-5-12.57-7.89,4.19,2.63,8.38,5.26,12.57,7.89Z"/>
  <path class="cls-1" d="m808.34,116.1c-3.28,1.11-4.42-2.84-7.14-3.04,0,0-.05-.05-.05-.05-.92-1.7-1.84-3.4-2.76-5.1,4.06,1.84,7.33,4.63,9.96,8.19Z"/>
  <path class="cls-1" d="m464.24,979.81c4.5.15,9,.31,13.49.46-4.54,1.07-9.07,1.73-13.49-.46Z"/>
  <path class="cls-1" d="m973.99,396.54c-3.14-2.81-3.2-6.51-2.93-10.29.98,3.43,1.96,6.86,2.93,10.29Z"/>
  <path class="cls-1" d="m80.13,228.09c.82,4.47-1.15,7.23-5.32,8.62,1.77-2.88,3.55-5.75,5.32-8.62Z"/>
  <path class="cls-1" d="m940.68,676.57c1.06,1.9-1.12,5.21,2.58,5.97-.18.7-.37,1.4-.55,2.1-1.58-.39-3.15-.79-4.73-1.18-.12-.11-.23-.22-.34-.33l3.04-6.56Z"/>
  <path class="cls-1" d="m583.05,9.83c-3.93.28-7.81.31-11.02-2.53,3.68.84,7.35,1.69,11.02,2.53Z"/>
  <path class="cls-1" d="m954.1,325.4c-4.92-2.19-2.47-7.53-4.66-10.88,3.31,2.88,2.96,7.32,4.66,10.88Z"/>
  <path class="cls-1" d="m970.72,382.28c-3.99-2.2-3.47-5.83-2.98-9.44,1,3.15,1.99,6.29,2.98,9.44Z"/>
  <path class="cls-2" d="m937.98,683.46c1.57.4,3.15.79,4.73,1.18-.29.67-.58,1.33-.87,2-1.03.46-2.07.92-3.86,1.72v-4.91Z"/>
  <path class="cls-1" d="m180.96,867.72c3.79.24,6.76,1.47,7.15,5.85-2.39-1.95-4.77-3.9-7.15-5.85Z"/>
  <path class="cls-1" d="m270.27,54.87c-1.38,3.24-3.57,5.05-7.3,4.18,2.44-1.4,4.87-2.79,7.3-4.18Z"/>
  <path class="cls-1" d="m875.34,796.16c.58-3.4,2.31-5.74,5.87-6.38-1.96,2.13-3.91,4.26-5.87,6.38Z"/>
  <path class="cls-1" d="m980.5,514.27c.02-2.4.03-4.8.05-7.2,1.79,2.41,1.93,4.81-.05,7.2Z"/>
  <path class="cls-1" d="m178.04,115.87c.23,3.65-3,4.01-5.13,5.42.23-3.21,3.08-3.94,5.13-5.42Z"/>
  <path class="cls-1" d="m901.87,221.75c-2.87-1-4.11-2.96-3.54-5.99,1.18,2,2.36,3.99,3.54,5.99Z"/>
  <path class="cls-1" d="m193.65,877.46c3.68-2.06,4.06.55,4.45,3.15-1.48-1.05-2.97-2.1-4.45-3.15Z"/>
  <path class="cls-1" d="m315.11,947.05c2.11.62,4.85-.6,6.24,2.14-2.18-.42-4.97.95-6.24-2.14Z"/>
  <path class="cls-1" d="m167.15,126.62c.11,3.17-1.41,4.68-4.58,4.51.25-2.8,2.64-3.43,4.58-4.51Z"/>
  <path class="cls-1" d="m301.16,40.46c-.83,3.59-3.89,2.32-6.15,2.81,2.05-.94,4.1-1.88,6.15-2.81Z"/>
  <path class="cls-1" d="m963.3,354.65c-2.02-.73-2.95-1.79-1.07-3.66.36,1.22.72,2.44,1.07,3.66Z"/>
  <path class="cls-1" d="m897.84,215.01c-2.01-.36-3.23-1.34-2.79-3.59.93,1.2,1.86,2.4,2.79,3.59Z"/>
  <path class="cls-1" d="m793,877.87c.26-2.2,1.28-3.39,3.67-2.75-1.23.92-2.45,1.83-3.67,2.75Z"/>
  <path class="cls-1" d="m888.75,779.06c-1.3-2.7.85-2.54,2.39-2.89-.8.97-1.6,1.93-2.39,2.89Z"/>
  <path class="cls-1" d="m21.73,357.25c-.4,1.38-.8,2.76-1.2,4.14-.44-1.63-1.2-3.35,1.2-4.14Z"/>
  <path class="cls-1" d="m773.18,89.38c-.96-.59-1.91-1.17-2.87-1.76,1.34-.03,2.75-.19,2.87,1.76Z"/>
  <path class="cls-1" d="m980.15,437.39c-.1-1.16-.21-2.32-.31-3.48.11,1.16.21,2.32.31,3.48Z"/>
  <path class="cls-1" d="m893.29,772.97c.55-.64,1.1-1.27,1.65-1.91.52,1.56.14,2.35-1.65,1.91Z"/>
  <path class="cls-1" d="m959.98,344.65c-1.54-.16-1.81-.82-.77-1.99.26.66.51,1.33.77,1.99Z"/>
  <path class="cls-1" d="m814.93,858.86c-.43-1.69.51-1.76,1.74-1.47-.58.49-1.16.98-1.74,1.47Z"/>
  <path class="cls-1" d="m961.31,347.2c-.29-.64-.58-1.29-.86-1.93.29.64.58,1.29.86,1.93Z"/>
  <path class="cls-1" d="m891.61,775.49c.38-.62.77-1.25,1.15-1.87-.39.62-.77,1.25-1.15,1.87Z"/>
  <path class="cls-1" d="m944.98,301.79c-.26-.33-.52-.65-.78-.98.26.33.52.65.78.98Z"/>
  <path class="cls-1" d="m203.21,884.71c1.73-.91,1.84.07,1.64,1.4-.55-.47-1.1-.94-1.64-1.4Z"/>
  <path class="cls-1" d="m872.36,800.53c.43-.56.85-1.12,1.28-1.68-.43.56-.85,1.12-1.28,1.68Z"/>
  <path class="cls-1" d="m955.65,329.57c-1.04.08-1.56-.11-.59-1.1.2.37.4.74.59,1.1Z"/>
  <path class="cls-1" d="m43.63,298.38c.09.3.19.6.28.9-.36.03-.71.06-1.07.09.26-.33.53-.66.79-.99Z"/>
  <path class="cls-1" d="m975.05,404.02c-.38-.16-.75-.32-1.13-.48.24-.22.48-.44.72-.66.14.38.27.77.4,1.15Z"/>
  <path class="cls-1" d="m966.3,365.68c-.12-.19-.27-.36-.35-.56-.03-.07.08-.21.13-.31.08.29.15.58.23.87Z"/>
  <path class="cls-1" d="m958.31,338.75c-.19-.22-.38-.45-.58-.67.19.23.38.45.58.67Z"/>
  <path class="cls-1" d="m981.34,528.63c0-.55,0-1.1,0-1.64,0,.55,0,1.1,0,1.64Z"/>
  <path class="cls-1" d="m188.06,109.03c-.36.1-.72.19-1.08.29.36-.1.72-.19,1.08-.29Z"/>
  <polygon class="cls-1" points="123.33 812.43 123.64 812.33 123.66 812.64 123.37 812.74 123.33 812.43"/>
  <polygon class="cls-1" points="293.52 43.87 293.58 44.14 293.3 44.06 293.27 43.8 293.52 43.87"/>
  <path class="cls-1" d="m43.12,296.48c.23.17.24.36.04.57-.13-.15-.25-.29-.38-.44.11-.04.23-.09.34-.13Z"/>
  <path class="cls-1" d="m676.19,129.34c-5.3,3.44-10.01.27-14.63-1.59-13.49-5.43-26.85-11.16-40.26-16.77,7.44,1.89,15.07,3.22,22.24,5.84,5.37,1.97,9.77,6.57,16.12,5.59.96,1.11,1.77,2.05,2.63,3.04,2.36.39,5.29-.14,5.56,3.31,3.11.22,5.73.4,8.35.58Z"/>
  <path class="cls-1" d="m730.44,77.18c-2.99,6.69-9.42,10.21-14.3,15.1-8.3,8.31-17.35,15.88-26.07,23.76,7.1-7.47,13.98-15.17,21.37-22.34,6.02-5.83,10.34-13.71,19-16.53Z"/>
  <path class="cls-1" d="m107.44,608.01c3.85,11.03,7.69,22.07,11.54,33.1-2.32-5.25-6.53-9.78-5.9-16.16-.97-.86-1.89-1.66-2.94-2.58-.15-1.51-.31-3.15-.49-4.96-.94-.87-1.93-1.8-3.38-3.14.36-1.93.76-4.09,1.17-6.25Z"/>
  <path class="cls-1" d="m650.55,864.36c6.65-3.19,13.24-6.49,19.98-9.48,1.47-.65,4.12-2.28,4.53,1.48-2.21.11-4.41.21-6.61.32-.95,1.12-1.84,2.17-2.83,3.33-2.24.62-5.16.35-5.66,3.86-3.37.18-6.39.34-9.41.5Z"/>
  <path class="cls-1" d="m159.89,718.13c6.55,8.94,13.1,17.88,19.64,26.81-9.03-7.12-14.48-16.86-19.64-26.81Z"/>
  <path class="cls-1" d="m690.15,869.98c6.19,5.46,12.38,10.93,18.57,16.39-8.43-2.93-14.31-8.75-18.57-16.39Z"/>
  <path class="cls-1" d="m302.55,848.2c7.96,3.66,15.92,7.32,23.88,10.98-3.38,3.28-4.79-1.18-7.03-1.97-4.42-1.56-8.59-3.85-11.17-5.05-2.69-2.46-5.8-.57-5.68-3.97Z"/>
  <path class="cls-1" d="m124.08,652.46c2.95,6.77,5.91,13.54,8.86,20.3-3.85.41-2.52-2.76-3.47-5.41-.43-.33-1.52-1.17-2.64-2.04.76-4.74-6.42-7.54-2.75-12.85Z"/>
  <path class="cls-1" d="m596.31,883.03c6.03-1.82,12.05-3.64,18.07-5.45-.56,1.02-1.11,2.05-1.88,3.45-6.07-3.21-10.1,5.82-16.2,2Z"/>
  <path class="cls-1" d="m387.08,894.42c0,18.76,0,37.52,0,56.28,0-18.76,0-37.52,0-56.28Z"/>
  <path class="cls-1" d="m387.08,36.49c0,17.81,0,35.63-.01,53.44,0-17.82,0-35.63.01-53.44Z"/>
  <path class="cls-1" d="m381.49,106.44c-5.65,1.84-11.3,3.68-16.95,5.53-.27-4.06,3.18-2.36,5.45-3.47.56-.62,1.45-1.62,2.76-3.08,2.75.32,5.74.67,8.74,1.03Z"/>
  <path class="cls-1" d="m556.98,890.39c5.93-.9,11.86-1.8,17.79-2.7-4.97,7.25-11.63,3.32-17.79,2.7Z"/>
  <path class="cls-1" d="m361.25,112.79c-5.35,1.91-10.7,3.82-16.05,5.72.4-4.85,6.63-1.27,7.26-5.31,3.16-.15,5.97-.28,8.79-.41Z"/>
  <path class="cls-1" d="m356.04,871.79c5.34,1.76,10.68,3.53,16.02,5.29-6.42,1.49-11.36-1.47-16.02-5.29Z"/>
  <path class="cls-1" d="m119.51,343.61c-1.76,4.83-3.51,9.66-5.26,14.49-.46-2.15-.93-4.29-1.36-6.25,1.4-1.22,2.32-2.03,2.91-2.55,1.64-1.98-.71-5.98,3.71-5.69Z"/>
  <path class="cls-1" d="m112.81,363.71c-1.76,5.09-3.52,10.18-5.28,15.27-.46-2.42-.92-4.83-1.48-7.7,4.98-.54,2.17-6.88,6.76-7.56Z"/>
  <path class="cls-1" d="m224.53,792.61c4.85,4.17,9.7,8.34,14.55,12.5-7.29-1.33-10.26-7.68-14.55-12.5Z"/>
  <path class="cls-1" d="m93.07,529.32c.52,5.99,1.04,11.98,1.57,17.97-4.64-5.63-2.48-11.86-1.57-17.97Z"/>
  <path class="cls-1" d="m573.07,98.64c-4.25-.78-8.49-1.55-12.74-2.32,4.43-.23,9.45-3.68,12.74,2.32Z"/>
  <path class="cls-1" d="m254.57,817.15c3.17,2.16,6.34,4.32,9.5,6.48-4.33-.45-8.37-1.34-9.5-6.48Z"/>
  <path class="cls-1" d="m239.55,180.86c-2.71,2.2-5.42,4.4-8.13,6.6,1.35-3.88,3.42-6.86,8.13-6.6Z"/>
  <path class="cls-1" d="m544.61,893.82c2.6-2.54,6.07-2.17,9.25-2.74-2.18,3.96-5.86,2.87-9.25,2.74Z"/>
  <path class="cls-1" d="m181.74,748.19c3.27,2.06,5.54,4.94,6.97,8.51-3.55-1.83-6.48-4.17-6.97-8.51Z"/>
  <path class="cls-1" d="m242.88,808.36c3.1,2.34,6.21,4.67,9.31,7.01-4.74-.17-6.61-4.14-9.31-7.01Z"/>
  <path class="cls-1" d="m603.27,106c-3.38-1.12-6.76-2.24-10.13-3.36,3.4,1.06,8.18-2.07,10.13,3.36Z"/>
  <path class="cls-1" d="m96,434.02c-.68,2.87-1.36,5.74-2.04,8.61-.64-3.18-3.28-6.83,2.04-8.61Z"/>
  <path class="cls-1" d="m99.37,413.91c-.73,2.3-1.46,4.61-2.18,6.91-.62-2.73-2.78-5.94,2.18-6.91Z"/>
  <path class="cls-1" d="m106.08,383.8c-.67,2.59-1.33,5.18-1.99,7.77-1.31-3.1-2.36-6.12,1.99-7.77Z"/>
  <path class="cls-1" d="m286.75,147.54c-1.86,2.82-4.6,4.04-7.84,4.35,2.17-2.25,4.39-4.41,7.84-4.35Z"/>
  <path class="cls-1" d="m578.77,887.08c2.57-.65,5.15-1.31,7.72-1.96-1.91,3.27-4.67,3.2-7.72,1.96Z"/>
  <path class="cls-1" d="m104.07,595.47c.66,2.32,1.31,4.64,1.97,6.96-4.95-1.11-2.83-4.21-1.97-6.96Z"/>
  <path class="cls-1" d="m618.25,877.05c1.9-2.91,5.13-2.24,7.86-2.9-1.68,3.53-4.99,2.61-7.86,2.9Z"/>
  <path class="cls-1" d="m345.14,867.63c2.45.83,4.89,1.66,7.33,2.49-2.84.32-6.09,1.88-7.33-2.49Z"/>
  <path class="cls-1" d="m191.03,758.94c1.97,2.06,3.94,4.12,5.9,6.18-2.65-1.41-4.91-3.19-5.9-6.18Z"/>
  <path class="cls-1" d="m158.84,269.04c-1.26,2.05-2.52,4.11-3.77,6.16-2.05-4.08,1.28-4.86,3.77-6.16Z"/>
  <path class="cls-1" d="m97.32,566.2c.44,2.01.87,4.02,1.31,6.03-3.59-1.33-2.22-3.73-1.31-6.03Z"/>
  <path class="cls-1" d="m192.22,226.24c-.51,3.02-3.11,3.98-5.28,5.35-.05-3.58,2.9-4.18,5.28-5.35Z"/>
  <path class="cls-1" d="m340.46,120.51c-1.8.75-3.6,1.49-5.4,2.23.29-4.4,2.86-3.27,5.4-2.23Z"/>
  <path class="cls-1" d="m186.41,232.12c-.57,2.43-1.92,4.08-4.46,4.58-.16-3.14,2.18-3.83,4.46-4.58Z"/>
  <path class="cls-1" d="m252.35,170.95c-1.53,1.09-3.07,2.17-4.6,3.26.33-2.79,2.13-3.5,4.6-3.26Z"/>
  <path class="cls-1" d="m769.87,92.74c-1.77-.93-3.53-1.86-5.3-2.79,2.23.06,5.16-1.23,5.3,2.79Z"/>
  <path class="cls-1" d="m196.39,222.06c-.6,1.84-1.28,3.58-3.65,3.63.4-2.04,1.38-3.49,3.65-3.63Z"/>
  <path class="cls-1" d="m278.29,833.24c1.21.7,2.42,1.39,3.63,2.09-3.04,2.5-3.1-.21-3.63-2.09Z"/>
  <path class="cls-1" d="m339.35,865.14c1.21.41,2.41.82,3.62,1.23-1.84,1.43-3.13,1.29-3.62-1.23Z"/>
  <path class="cls-1" d="m387.08,93.41c0,3.09,0,6.18.01,9.27,0-3.09,0-6.18-.01-9.27Z"/>
  <path class="cls-1" d="m285.75,838.27c1.2.47,2.4.95,3.59,1.42-1.9,1.29-3.04.67-3.59-1.42Z"/>
  <path class="cls-1" d="m332.93,123.97c-1.2.45-2.4.9-3.59,1.34.34-2.75,1.72-2.7,3.59-1.34Z"/>
  <path class="cls-1" d="m264.73,824.14c1.2.92,2.4,1.85,3.6,2.76-2.11.26-3.26-.72-3.6-2.76Z"/>
  <path class="cls-1" d="m155.12,711.1c.59,1.25,1.18,2.49,1.77,3.74-2.42-.38-2.35-1.94-1.77-3.74Z"/>
  <path class="cls-1" d="m269.83,828.23c1.43.69,2.86,1.39,4.28,2.08-1.67-.2-3.61.18-4.28-2.08Z"/>
  <path class="cls-1" d="m387.02,25.48c.02,1.95.04,3.9.05,5.85-.02-1.95-.04-3.9-.05-5.85Z"/>
  <path class="cls-1" d="m162.94,263.94c-.67.91-1.34,1.82-2,2.72-.28-1.61.22-2.64,2-2.72Z"/>
  <path class="cls-1" d="m243.62,177.46c-.79.68-1.59,1.37-2.38,2.05,0-1.6.94-2.12,2.38-2.05Z"/>
  <path class="cls-1" d="m230.99,187.89c-.81.74-1.63,1.48-2.44,2.22,0-1.65.42-2.81,2.44-2.22Z"/>
  <path class="cls-1" d="m711.72,889.01c.57.56,1.14,1.13,1.7,1.69-.57-.56-1.14-1.13-1.7-1.69Z"/>
  <path class="cls-1" d="m441.56,893.1c1.08-1,1.56-.48,1.78.7-.59-.23-1.19-.47-1.78-.7Z"/>
  <path class="cls-1" d="m103.46,393.77c0,.64,0,1.27,0,1.91-1.5-.63-1.51-1.27,0-1.91Z"/>
  <path class="cls-1" d="m438.52,94.14c-.67.14-1.34.28-2,.41.67-.14,1.34-.27,2-.41Z"/>
  <path class="cls-1" d="m246.98,174.9c-.51.44-1.03.89-1.54,1.33.52-.45,1.03-.89,1.54-1.33Z"/>
  <path class="cls-1" d="m387.09,884.36c0,.91,0,1.82,0,2.72,0-.91,0-1.82,0-2.72Z"/>
  <path class="cls-1" d="m241.07,807.11c.37.25.74.5,1.11.74-.37-.25-.74-.5-1.11-.74Z"/>
  <path class="cls-1" d="m401.26,964.97v-1.11c.4.03.72.05,1.05.07-.35.35-.7.69-1.05,1.04Z"/>
  <path class="cls-1" d="m158.26,716.42c.34.34.68.69,1.01,1.03-.34-.34-.68-.69-1.01-1.03Z"/>
  <path class="cls-1" d="m284.01,836.67c.4.36.8.71,1.19,1.06-.4-.36-.8-.71-1.19-1.06Z"/>
  <path class="cls-1" d="m292.35,841.74c.42.33.85.67,1.27,1-.43-.33-.85-.66-1.27-1Z"/>
  <path class="cls-1" d="m160.46,267.31c.03.38.05.76.09,1.31-.48-.04-.84-.07-1.19-.1.37-.4.73-.8,1.1-1.21Z"/>
  <path class="cls-1" d="m375.93,878.8c.03-.18.06-.37.09-.55.21.3.42.59.62.89-.24-.11-.48-.23-.71-.34Z"/>
  <path class="cls-1" d="m403.32,99.47c-.2.04-.4.1-.6.12-.03,0-.14-.26-.1-.3.1-.12.26-.18.4-.27,0,0,.31.11.31.11,0,0,0,.34,0,.34Z"/>
  <path class="cls-1" d="m441.25,93.55c-.43.07-.86.14-1.28.21.43-.07.86-.14,1.28-.21Z"/>
  <path class="cls-1" d="m387.03,953.05c0,.33.01.66.02.99-.07-.23-.16-.45-.19-.68-.01-.1.11-.21.17-.31Z"/>
  <path class="cls-1" d="m386.95,881.91c.07-.02.14-.03.21-.05-.06.08-.12.16-.18.24,0,0-.03-.19-.03-.19Z"/>
  <polygon class="cls-1" points="387.16 961.21 387.38 961.37 387.17 961.55 386.97 961.38 387.16 961.21"/>
  <polygon class="cls-1" points="387.27 19.64 387.43 19.87 387.18 19.98 387.03 19.76 387.27 19.64"/>
  <path class="cls-1" d="m970.4,406.57c-4.9-5.65-1.88-13.31-4.92-19.42,4.51,1.96,2.61,6.36,3.53,9.63.88,3.15.96,6.52,1.39,9.8Z"/>
  <path class="cls-1" d="m953.21,338.78c-2.01-5.13-4.02-10.26-6.02-15.39,5.2,3.89,4.84,9.94,6.02,15.39Z"/>
  <path class="cls-1" d="m959.15,360.43c-1.09-4.54-2.18-9.07-3.27-13.61,2.86,4.11,3.63,8.73,3.27,13.61Z"/>
  <path class="cls-1" d="m795.04,869.72c3.7-3.01,7.4-6.01,11.1-9.01-2.51,4.47-4.88,9.11-11.1,9.01Z"/>
  <path class="cls-1" d="m874.63,789.37c3.1-4.01,6.2-8.01,9.3-12.02-.3,6.17-5.17,8.81-9.3,12.02Z"/>
  <path class="cls-1" d="m861.01,806.02c3.12-3.78,6.24-7.56,9.36-11.33-.29,6.12-5.38,8.26-9.36,11.33Z"/>
  <path class="cls-1" d="m904.8,746.57c1.68-2.6,3.35-5.21,5.02-7.81.37,3.92-2.03,6.06-5.02,7.81Z"/>
  <path class="cls-1" d="m926.94,707.02c-.55-3.67,2.59-5.68,3.82-8.54,1.84,4.24-2.78,5.59-3.82,8.54Z"/>
  <path class="cls-1" d="m808.09,858.92c.62-1.95,1.82-3.2,3.95-3.35-1.32,1.12-2.64,2.23-3.95,3.35Z"/>
  <path class="cls-1" d="m886.87,773.14c.71-.91,1.41-1.81,2.12-2.72,1.22,2.41.27,3.12-2.12,2.72Z"/>
  <path class="cls-1" d="m815.79,852.09c.42-.45.83-.9,1.24-1.35-.42.45-.83.9-1.24,1.35Z"/>
  <path class="cls-1" d="m790.89,873.14c-.05-1.31.5-1.79,1.76-1.24-.59.41-1.17.83-1.76,1.24Z"/>
  <path class="cls-1" d="m872.1,792.74c.39-.46.79-.91,1.18-1.37.94,1.62-.09,1.52-1.18,1.37Z"/>
  <path class="cls-1" d="m884.39,776.71c.39-.37.79-.73,1.18-1.1-.39.37-.79.73-1.18,1.1Z"/>
  <path class="cls-1" d="m824.54,137.59c-5.96-5.36-11.92-10.72-17.88-16.09,7.68,3.46,13.6,8.86,17.88,16.09Z"/>
  <path class="cls-1" d="m879.68,198.84c-2.61-3.44-5.23-6.87-7.84-10.3,4.63,1.9,6.36,6.01,7.84,10.3Z"/>
  <path class="cls-1" d="m850.38,163.75c-3.3-2.46-6.6-4.93-8.29-8.89,3.35,2.42,6.77,4.77,8.29,8.89Z"/>
  <path class="cls-1" d="m869.59,186.47c-1.99-2.39-3.97-4.78-5.96-7.17,3.49,1.14,5.95,3.14,5.96,7.17Z"/>
  <path class="cls-1" d="m856.3,170.38c-3.16-.83-3.72-3.96-5.39-6.11,2.86,1.1,5.41,2.47,5.39,6.11Z"/>
  <path class="cls-1" d="m893.32,217.67c-2.35-1.64-3.82-3.87-4.37-6.69,2.99,1.23,3.79,3.89,4.37,6.69Z"/>
  <path class="cls-1" d="m898.31,224.45c-1.93-.38-3.04-1.32-2.43-3.47.81,1.16,1.62,2.31,2.43,3.47Z"/>
  <path class="cls-1" d="m926.74,276.89c-.21-.95-.41-1.9-.62-2.84.66.66,1.32,1.31,1.98,1.96-.45.29-.91.59-1.36.88Z"/>
  <path class="cls-1" d="m826.27,138.89c-.37-.24-.74-.48-1.11-.71.37.24.74.48,1.11.71Z"/>
  <path class="cls-1" d="m801.2,113.06c-.07.1-.13.21-.2.31.05-.12.1-.24.14-.36,0,0,.05.05.05.05Z"/>
  <path class="cls-1" d="m827.49,141.43c.08.08.16.16.24.23-.05-.07-.09-.15-.14-.22,0,0-.1-.01-.1-.01Z"/>
  <polygon class="cls-1" points="887.21 209.81 886.91 209.93 886.89 209.62 887.19 209.49 887.21 209.81"/>
  <path class="cls-1" d="m948.07,656.87c1.55-2.67.37-6.41,3.36-8.51-.78,2.97,1.14,7.01-3.36,8.51Z"/>
  <path class="cls-1" d="m946.32,661.03c.29-.74.58-1.47.87-2.21.68,1.12,1.27,2.21-.87,2.21Z"/>
  <path class="cls-1" d="m388.05,124.23v75.96c-100.47,41.35-168.67,111.84-195.27,217.45-26.59,105.55.41,199.73,71.33,280.99,6.17,6.78,12.06,13.85,18.57,20.29,11.09,10.98,23.36,20.52,36.18,29.47,12.91,9.01,26.52,16.62,40.61,23.45,7.65,3.7,15.57,6.84,23.33,10.34,2.83,1.27,5.44,2.92,5.45,6.58,0,23.85,0,47.71-.04,71.56,0,1.04-.49,2.07-.72,2.98-48.07,4.93-194.05-110.36-222.59-163.93-37.14-69.73-59.36-141.22-56.78-219.83,2.57-78.36,26.66-149.69,75.44-215.14,12.02-39.81,155.55-139.97,204.49-140.17Z"/>
  <path class="cls-1" d="m631.73,852.87c-29.53,9.29-58.94,19.08-91.79,21.22-18.2,9.45-123.06,1.33-137.46-11.47v-72.93c8.6,1.86,16.45,3.68,24.35,5.25,32.09,6.36,64.08,11.72,97.1,5.8,11.34-2.03,23.24-1.83,34.55-4.74,7.94-2.04,15.64-5.06,23.4-7.78,12.76-4.48,23.14-1.64,32.76,8.19,12.47,12.75,26.02,24.45,39.09,36.61,4.96,4.61,2.97,7.73-2.2,10.22-6.61,3.18-13.19,6.41-19.79,9.62Z"/>
  <path class="cls-1" d="m656.55,145.71c-8.17,12.12-18.94,20.69-28.66,30.18-6.46,6.31-14.02,11.57-20.06,18.24-8.87,9.79-18.64,4.66-27.11,1.49-17.38-6.5-35.54-8.59-53.52-11.13-14.33-2.03-29.1-1.53-43.66-1.28-27.42.47-54.23,5.15-81.03,13.41-.16-1.46-.44-2.88-.45-4.29-.04-19.39.56-38.8-.3-58.15-.5-11.15,3.71-15.4,14.35-17.13,11.11-1.8,22.55-1.8,33.3-4.08,21.55-4.58,43.06-2.67,64.44-2.06,26.3.76,52.28,5.82,77.85,12.28,3.27.83,7.54-.44,9.1,2.91,19.79,3.51,36.8,12.65,55.75,19.62Z"/>
  <path class="cls-2" d="m492.21,505.37c-2.35-2.14-3.44-4.94-4.3-7.93,0,11.94-1.01,23.98.26,35.78,1.48,13.79-6.76,11.37-15.34,10.62v-71.25h13.87c.33,2.45.66,4.86.98,7.26-.54,2.88,2.23,1.68,3.15,2.72,4.59,4.45,5.18,11.94,11.6,15l.33.08s.08.33.08.32c-.86,2.04.22,2.52,1.98,2.46,2.92,4.61,5.84,9.22,9.6,15.17,4.46-15.16-.4-29.07,1.8-43.03h15.45v70.21c-11.92,5.15-17.68-1.88-22.21-11.39,0-1.78,0-3.56,0-5.36-2.13-2.31-4.27-4.6-6.42-6.9.09-1.28.18-2.49.24-3.32-2.42-2.24-4.62-4.27-6.68-6.18-.28-1.71-.52-3.19-.86-5.27-1.36.39-2.45.7-3.53,1.01Z"/>
  <path class="cls-2" d="m615.9,428.28c1.85,4.69,3.7,9.38,5.7,14.43h-14.9c-.57-1.99-1.14-4-1.71-6.02.76-1.35,1.53-2.71,2.2-3.91-1.29-1.85-2.49-3.58-3.61-5.19-.42.92-.87,1.91-1.33,2.9-.52-.66-1.04-1.32-1.56-1.98,0,0,0-.26,0-.26l-.28-.03c-4.11-11.34-6.42-23.42-13.69-33.48-1.1-.34-2.2-.69-3.58-1.11-.83,2.64-2.07,4.78-.28,7.12-.17.75-.35,1.51-.52,2.26-1.19.55-2.38,1.1-3.51,1.62v7.01c-3.62,9.83-7.25,19.67-10.93,29.66-4.47,2.31-9.3,1.62-14.08,1.37,3.68-9.69,7.36-19.38,11.63-30.65-.32.3.67-.63,1.74-1.63-1.46-3.15.58-4.9,2.89-6.58-1.01-5.01,2.32-8.61,3.99-12.73,3.8-9.34,5.3-21.3,20.16-18.95.53,1.39,1.06,2.77,1.59,4.15-.52,5.7,2.7,9.98,5.5,14.42.42,1.05.84,2.11,1.25,3.16-1.35,3.94-.34,7.25,2.78,9.82-.85,6.41,3.36,10.8,6.13,15.46,1.77,2.98-1.1,8.17,4.4,9.14Z"/>
  <path class="cls-2" d="m790.45,502.61c-4.15-7.23-.63-14.88.05-23.25,4.71,7.22,9.43,14.44,14.14,21.66-.81,1.8.36,2.72,1.61,3.61.26.29.51.58.77.87.83,2.38,1.39,4.95,4.12,6.03.93.96,1.85,1.93,2.77,2.89.18.37.36.74.54,1.12.28-.31.57-.62.85-.93,5.08-13.7.06-27.94,2.66-42.09h12.42c0,20.6.04,41.27-.04,61.94-.01,3.1-.57,6.21-.88,9.31-7.32.79-12.92-2.18-17.3-7.87-.48-.59-.96-1.18-1.43-1.76-.3-.45-.61-.9-.91-1.35-2.23-3.45-4.45-6.9-6.68-10.34-2.4-4.97-4.03-10.65-7.59-14.59-1.43-1.58-.14-7.12-5.1-5.24Z"/>
  <path class="cls-2" d="m795.82,585.19c-6.95-.24-13.9-.48-20.84-.72-.05-2.5-.1-5-.15-7.51.77-.16,1.54-.32,2.3-.49,0,0,.18.13.18.13l.18-.14c13.84,0,27.69.02,41.52.03,0,0,.31,0,.31,0,2.71.03,5.41.07,8.12.1,0,0,.17,0,.17,0h9.16c0,2.58,0,4.88,0,7.17-.35.35-.7.7-1.05,1.05-6.66.12-13.33.24-19.99.36-.86-.75-1.54-.94-1.69.54-2.39,5.19-.87,10.66-1.01,15.98-.41,15.22-.48,30.45-.69,45.68-4.64,0-9.28-.01-13.93-.02-.18-18.09-.33-36.18-.55-54.27-.03-2.34-.38-4.68-.59-7.02.3-1.57-.36-1.58-1.46-.89Z"/>
  <path class="cls-2" d="m707.86,543.94c-2.27,0-4.53-.01-6.79-.02-2.19,0-4.39,0-6.59,0-1.66-.07-3.31-.15-4.97-.22,0,0-.12-.25-.12-.25l-.08.26c-1.66.07-3.33.14-4.98.21-1.92,0-3.84,0-5.76-.02-.58-.43-1.66-.86-1.65-1.28.13-17.48.36-34.96.56-52.44.88-2.86,1.37-5.72-.29-8.51-.11-2.39-.21-4.77-.32-7.15.19-.17.19-.34,0-.51,3.94-.5,7.88-1.01,12.92-1.65,0,19.8,0,38.81,0,57.81-.97.76-.81,1.15.39,1.19,10.2,2.7,20.61.45,30.89,1.22,1.51.11,3.03.02,4.96.02v10.96c-.88.09-2.01.2-3.13.31-.55-.05-1.1-.11-1.65-.16-3.65.07-7.3.13-10.95.2-.81,0-1.62.02-2.43.03Z"/>
  <path class="cls-2" d="m880.28,381.25c-3.58.22-7.16.45-11.14.7v-9.74c13.49-2.25,29.05,3.99,32.72,13.88,4.84,13.05-1.62,22.17-12.05,29.59,5.53,8.63,10.97,17.12,16.71,26.09-3.84,3.34-8.85,2.93-12.91.83-3.35-1.73-6.37-5.18-5.85-10.12-5.6-2.42-5.53-9.28-10.25-13.88-1.99-.3-4.91-.73-8.29-1.23-1.76-2.61-1.24-5.75-.38-9.84,15.05,2.83,22.22-3,19.51-18.64-.46-2.37-.92-4.75-1.35-6.94-2.28-1.82-4.51-1.22-6.73-.68Z"/>
  <path class="cls-2" d="m623.46,532.11c.2,2.62.41,5.24.65,8.37-4.33,2.67-8.97,1.23-14.09,1.41v-68.71h11.94c.97,10.04-.97,20.16,1.66,29.48h31.59v8.83h-32.35c0,6.86,0,13.2,0,19.54-.14.28-.28.56-.42.85.34.08.68.16,1.02.24Z"/>
  <path class="cls-2" d="m678.9,413.32c-2.48,7.2,4.88,10.48,6.54,16.1.87,2.94,3.44,5.39,5.25,8.08-.38,1.22-.74,2.37-1.02,3.25-11.09,3.26-14.84-4.34-18.41-12.24-2.76-6.13-6.37-11.4-13.48-12.52-.94-3.04-1.71-5.53-.16-8.26,8.59.16,17.8.36,18.72-11.41,1.04-13.18-7.94-15.74-19.01-15.51v-8.25c9.84-1.53,19.11-.41,26.58,7.44.13,1.52-1.03,3.99,2.31,3.18l.4.1s.1.4.1.4c-.4,1.85.39,3.06,2.04,3.82.38.68.76,1.36,1.14,2.04-1.53,3.1-1.07,6.28-.35,9.47-.19.71-.37,1.42-.56,2.13-3.6,3.87-8.32,6.8-10.1,12.18Z"/>
  <path class="cls-2" d="m397.18,529.29c-3.74-8.01-5.19-16.42-4.95-25.25.28-10.44.19-20.89.26-31.33,0,0-.06-.18-.06-.18h15.01v18.53c.03,8.33.05,16.67.08,25.01.53,2.37,1.05,4.74,1.58,7.1-1.16,3.19.27,4.9,3.29,5.69,2.83,4.1,10.98,4.09,9.24,11.97-6.61,3.16-12.33,2.08-17.32-3.22-2.38-2.77-4.76-5.55-7.14-8.33Z"/>
  <path class="cls-2" d="m586.88,619.73c.27,4.25-.94,8.1-3.11,11.69-5.52,4.74-11.03,9.48-16.55,14.23-2.92,2.39-6.5,2.11-9.92,2.49,0-1.38,0-2.75,0-4.33,3.31-2.72,6.58-5.42,9.65-7.95-.32-.44-.84-1.17-1.37-1.91.31-.09.62-.19.92-.28,5.67-2.12,7.81-6.14,6.44-12.03,5.52-18.94-6.18-31.78-19.97-44.71,16.51-2.37,31.94,8.84,33.04,20.57.73,2.52,1.46,5.04,2.19,7.57.05,4.01.09,8.03.14,12.04-.49.87-.98,1.74-1.48,2.62Z"/>
  <path class="cls-2" d="m865.1,442.93c-.8.05-1.6.09-2.39.14-3.17-.05-6.34-.09-9.51-.14-.42-.49-1.2-.98-1.2-1.47-.06-23.1-.05-46.2-.05-69.52h14.26c0,23.47,0,46.93-.04,70.39,0,.19-.65.39-.99.58,0,0-.07.02-.07.02Z"/>
  <path class="cls-2" d="m494.64,376.46c.36-.3.72-.61,1.09-.91,2.69-1.07,6.89,1.15,7.9-3.6h7.52c.2,2.92,1.28,5.79-.7,8.5-2.31,0-4.63,0-6.7,0q-8.99,11.07-7.76,13.62c-6.09,16.31,1.2,35.83,14.88,39.36-.8,2.97,1.24,6.26-1.13,9.09-11.54-1.28-17.97-10.26-25.81-17.12-5.68-9.78-5.44-20.1-2.71-30.62.58-2.25,1.41-4.43,2.12-6.64,4.54-3.15,8.49-6.86,11.3-11.68Z"/>
  <path class="cls-2" d="m332.84,472.43c2.03-.08,4.07-.19,6.11-.24.53-.01,1.06.14,2.33.33-.08,1.65-.17,3.29-.25,4.92-4.37,2.94-10.18,4.03-12.45,9.68-.16.18-.33.35-.51.51-.83.22-1.66.45-2.6.71.24.89.41,1.51.58,2.13-6.72,15.89-2.04,32.66,11.59,41.95,3.02,2.06,5.09,4.73,3.58,8.75-7.22,0-14.06-.53-19.51-6.54-2.75-3.03-4.45-7.41-9.04-8.57-4-10.72-6-21.52-1.16-32.55,1.18-.3,2.36-.61,3.67-.95.86-8.09,6.87-12.3,12.48-17.08,1.94-.31,4.75.37,5.19-3.06Z"/>
  <path class="cls-2" d="m637.3,646.8c-2.22,1.87-4.8,1.16-7.29,1.02-1.59-4-5.22-3.9-8.61-4.28,0,0-.24-.16-.24-.16-.83-2.17-1.91-4.01-4.72-3.54-.36.02-.53-.15-.51-.51.44-1.37.33-2.29-1.49-1.82-.97-.98-1.95-1.95-2.92-2.93.53-1.16.17-1.61-1.08-1.36-5.68-5.96-6.31-13.58-6.58-20.7.26-3.43.48-6.38.7-9.34,4.23-4.03,4.81-10.46,9.66-14.25,2.51-1.96,6.08-3.97,4.96-8.37,4.98-3.73,10.65-4.27,16.92-3.61,0,1.24,0,2.42,0,3.6-5.23,1.05-6.13,9.1-12.95,7.37-.53,2.15-.95,3.86-1.41,5.71-.87.7-1.81,1.47-2.81,2.29.5,1.98-1.17,4.19,1.07,5.77-2.76,15.96-2.69,30.66,16.4,36.9.07,2.75-1.13,5.65.9,8.2Z"/>
  <path class="cls-2" d="m356.89,541.1c-.73.26-1.46.53-2.19.78-2.98-1.97-6.2-.93-9.36-.77-1.33-3.76-.27-6.88,3.26-8.51,5.49-2.54,8.75-6.82,10.92-12.2,2.24.48,1.97-1.26,2.23-2.52,1.73-8.34,1.04-16.65-.45-25.43-.73-.2-1.69-.46-2.65-.72-.42-.84-.85-1.67-1.27-2.51.77-2.58-.55-3.45-2.87-3.51-.46-.29-.92-.58-1.37-.87-2.21-1.96-4.42-3.91-6.64-5.87-1.85-2.25-1.15-4.67-.47-7.7,2.57.39,5.07.78,7.56,1.16.13.39.25.77.38,1.16.25-.19.5-.37.76-.56.99.43,1.98.85,2.97,1.27,2.77,4.43,5.82,8.54,11.19,10.08,9.65,14.68,8.15,29.72,1.41,44.91-4.47,3.93-8.95,7.85-13.42,11.78Z"/>
  <path class="cls-2" d="m850.77,524.44c-4.81-12.73-4.82-25.21,1.91-37.34,2.08-1.62,4.51-2.99,4.37-6.18.13-.25.33-.44.58-.57,2.27.53,3.28-.68,3.72-2.69.03-.3.18-.52.44-.66,1.21.51,2.11.54,1.83-1.21,4.36-.92,8.04-4.74,13.12-3.35,1.23,3.65.99,7.07-1.98,9.13-13.52,9.39-12.5,23.04-11.26,36.84,0,1.93,0,3.86,0,6.02,1.05.8,2.15,1.63,2.8,2.12.36,2.16.6,3.63.89,5.36,2.34.33,4.5.64,6.66.95,2.34,1.92,4.26,4.02,3.09,7.4-2.77,0-5.54,0-7.96,0-6.27-5.45-12.24-10.64-18.2-15.82Z"/>
  <path class="cls-2" d="m550.83,638.32c1.71,3.11,1.1,6.35.71,10.03-5.34.98-9.13-2.72-13.56-4.01-3.58-3.8-7.17-7.59-10.76-11.39-2.48-.97-2.08-3.37-2.62-5.29,0-9.94,0-19.88,0-30.69,4.34-5.52,9.29-11.81,14.24-18.1,4.07-1.99,8.29-3.25,12.97-3.1,1.07,2.61,1.18,4.94-.44,7.17-2.78,1.15-4.38,3.31-5.21,6.12-3.95,1.38-5.59,4.77-7.14,8.23-4.69,1.61-4.68,4.81-2.9,8.61-.03,3.79-.06,7.58-.09,11.37-.84,2.06-2.65,4.37,1.29,5.26.58,1.36,1.16,2.71,1.73,4.07-.33,5.85,1.78,9.53,8.29,9.23,1.03.72,2.06,1.43,3.09,2.15,0,0,.06.33.06.33l.33.02Z"/>
  <path class="cls-2" d="m438.97,518.46c2.46-14.9.27-29.94.93-45.2h14.68c0,12.68.44,25.35-.19,37.96-.29,5.86-2.67,11.62-4.1,17.42-7.14,4.92-11.38,15.58-23.16,11.54-1.57-4.04,2.66-5.06,3.89-7.47,1.62-.34,2.95-.62,4.07-.85,1.5-1.62,2.81-3.03,4.4-4.74-1.43-2.71,2.51-5.75-.52-8.66Z"/>
  <path class="cls-2" d="m872.58,615.63c1.43-2.99,2.85-5.98,4.27-8.97,6.83-3.72,5.48-11.17,7.74-16.97,3.45-9.96,9.61-15.56,20.86-12.93-3.14,5.67-8.62,10.21-8.41,17.49-9.83,12.83-15.36,26.92-13.33,43.45.39,3.19-.46,6.53-.74,9.79-4.8-.02-9.6-.03-14.4-.04-.05-7.19-.11-14.38-.16-21.56,4.4.22,2.96-3.27,3.23-4.61,1.39-1.81,2.59-2.8,2.98-4.04.41-1.31-.61-2-2.04-1.6Z"/>
  <path class="cls-2" d="m251.87,497.55c-.18,5.64-.37,11.27-.55,16.91-2.83,8.17,3.98,12.19,7.11,17.54,1.69.22,2.92.38,4.1.54,1.65,1.45,2.43,4.01,5.19,3.71-.2,2.05-.4,4.11-.59,6.05-14.98.66-28.11-11.2-28.75-25.28,0-6.14-.01-12.28-.02-18.42-.43-3.47.69-6.48,2.7-9.24,4.69-4.94,9.39-9.88,14.08-14.82,3.58-2.33,7.54-2.16,11.59-2.07,2.13,6.9-3.69,8.98-6.82,12.55-1.65.27-3.3.55-5.14.86-.21,2.26-.38,3.97-.54,5.68.03.26-.09.43-.34.49-4.64.36-2.45,3.26-2.03,5.5Z"/>
  <path class="cls-2" d="m680.6,577.04h12.04v70.65h-12.04v-70.65Z"/>
  <path class="cls-2" d="m741.23,541c-.27-7.6-.7-15.19-.76-22.79-.12-15.13-.04-30.26-.04-45.69h12.85c0,16.8.05,33.73-.03,50.66-.03,5.93-.38,11.85-.58,17.78-3.81.01-7.63.03-11.44.04Z"/>
  <path class="cls-2" d="m714.48,440.63c-.25-11.63-.59-23.26-.72-34.89-.12-11.24-.03-22.49-.03-34.08h12.45v68.85c-3.76,1.39-7.55,2.07-11.53,1.14-.06-.34-.12-.68-.18-1.02Z"/>
  <path class="cls-2" d="m787.06,505.37v35.41c-4.33.5-8.23.96-12.73,1.48v-68.97h12.9c0,10.52,0,20.72,0,30.92-1.02.24-1.25.6-.17,1.16Z"/>
  <path class="cls-2" d="m785.24,440.85c-.45-.65-1.28-1.29-1.29-1.94-.07-22.01-.06-44.03-.06-66.22h12.12c0,22.85,0,45.44,0,68.04-3.59.04-7.19.08-10.78.12Z"/>
  <path class="cls-2" d="m640.84,440.6c-.29-6.28-.84-12.57-.83-18.85.01-16.48.27-32.96.42-49.43,4,0,8.01,0,12.01.01.06,22.49.11,44.99.17,67.48-3.92.26-7.85.53-11.77.79Z"/>
  <path class="cls-2" d="m726.32,579.55v65.06c-3.95.47-7.81.93-12.26,1.46v-66.52h12.26Z"/>
  <path class="cls-2" d="m509.23,632.65c-.76,1.53-1.53,3.07-2.29,4.6-1.93.95-3.36,2.29-3.54,4.59-10.67,7.15-21.95,8.28-33.85,3.49-.22-2.82-4.78-4.32-2.37-8.07,2-.11,4.03-.22,6.06-.34,5.09-2.28,10.1,1.23,15.61-.3,8.08-2.25,8.54-6.64,6.56-13.08,2.45-6.1-3.85-6.6-6.18-9.64.22-1.35.44-2.69.66-4.05,1.13-.38,2.27-.74,3.87-1.25,5.86,3.77,14.47,4.88,15.23,14.56-1.09,3.2-1.66,6.39.24,9.51Zm-22.74,12.09c.17,0,.33.01.5.02v-5.14c-.17,0-.33,0-.5,0v5.12Z"/>
  <path class="cls-2" d="m564.13,496.04c.7.75,1.41,1.49,2.11,2.24.27,2.82,2.12,3.17,4.41,2.81.16,3.32.32,6.63.51,10.73-7.73-2.28-14.73-4.51-19.33-11.07-3.57-5.09-3.73-10.53-1.3-16.13,4.21-3.94,8.43-7.87,12.65-11.81,9.15-.27,18.33-2.25,27.41.53-.9,2.24-1.79,4.48-2.76,6.94-4.54.39-9.32.8-14.11,1.2-1,.1-2,.19-3,.28-4.93-3.29-5.13,3.84-8.94,3.4.98,3.96-1.93,8.1,2.35,10.88Z"/>
  <path class="cls-2" d="m881.82,513.5c-.25-2.36-.5-4.73-.78-7.34h26.76c-1.77,9.34,2.25,18.57-2.25,27.38-2.37,2.27-4.75,4.54-7.12,6.8-5.2,2.92-10.66,4.39-16.84,3.45-1.5-8.33,5.89-8.34,9.94-10.92,1.9-1.21,2.18-2.38,2.45-4.06,2-4.74.81-9.51.62-14.37-4.58-.34-8.68-.64-12.77-.94Z"/>
  <path class="cls-2" d="m584.76,507.17c.74.49,1.47.99,2.2,1.48,1.9,2.95,3.27,6.39,7.05,7.6,1.78,4.35,2.2,8.7.08,13.07-1.98.45-2.26,1.86-2.01,3.58-.09.27-.26.46-.53.55-3.49.81-5.85,2.85-6.9,6.33-3.54,2.32-7.37,1.13-11.5,1.51.17-2.09.29-3.56.41-5.02,3.95,0,4.71-5.97,9.15-4.28,2.39-10.15-.5-17.12-9.83-20.95.81-2.79-2.64-6.47,1.77-8.5.79,1.57,1.09,4.47,3.62,1.34,1.78.84,3.56,1.69,5.34,2.53.38.25.76.51,1.14.77Z"/>
  <path class="cls-2" d="m848.62,577.15c5.47-1.11,10.9-1.99,15.37,2.67-.68,2.5-1.84,5.2,2.24,5.9.17.22.34.45.51.67.88,2.01-2.56,6.08,2.83,5.94.29.66.57,1.31.86,1.96.05.47.1.94.15,1.42.97,2.89,1.94,5.77,3.03,8.98-3.47,1.06-.69,5.9-4.04,7.52-1.43,0-2.86.02-4.29.03-2.76-5.21-5.53-10.42-8.29-15.62.34-1.22,1.1-2.6-1.08-2.87-.46-.46-.92-.92-1.37-1.38-.13-2.68,1.53-6.24-3.26-6.64l-.35-.08s-.04-.36-.04-.35c-.75-2.71-1.51-5.42-2.27-8.13Z"/>
  <path class="cls-2" d="m485.25,607.47c-.14,2.38-.28,4.75-.42,7.13-11.45-4.1-20.88-9.66-17.33-24.63,3.79-4.15,7.81-8.54,11.83-12.94,2.04-.15,4.07-.3,6.16-.45,1.14,5.45,2.89,10.11-4.9,12.93-4.58,1.66-2.54,7.58-1.36,11.79,2.01,2.06,4.02,4.11,6.02,6.17Z"/>
  <path class="cls-2" d="m627.96,543.78c-4.12-2.85-3.16-6.47-1.31-10.71h32.23c-1.32,3.57,2.66,7.83-2.15,10.85-1.09,0-2.18,0-3.27,0-8.38-.01-16.75-.02-25.13-.03,0,0-.13-.27-.13-.27l-.24.17Z"/>
  <path class="cls-2" d="m733.72,443.14c-1.17-.1-2.35-.19-3.57-.29v-10.43h33.52c-.98,3.85,1.69,7.61-1.81,10.55-9.37.05-18.76.11-28.14.16Z"/>
  <path class="cls-2" d="m730.32,371.64h32.78v8.9h-32.78v-8.9Z"/>
  <path class="cls-2" d="m801.18,372.48c10.4-2.73,20.92,0,31.6-1.44v10.06c-10.68-1.23-21.28,1.58-31.78-1.56.06-2.35.13-4.71.19-7.07Z"/>
  <path class="cls-2" d="m829.07,410.63h-29.05c-.64-3.32-1.78-6.18,1.23-8.87h28.62c0,2.72,0,5.27,0,7.82-.26.35-.53.7-.79,1.05Z"/>
  <path class="cls-2" d="m730.89,410.59c-.28-2.79-.56-5.58-.87-8.73h29.73v8.64c-9.88,0-19.38,0-28.89,0,0,0,.03.09.03.09Z"/>
  <path class="cls-2" d="m627.17,471.98h31.41v9.15h-31.41v-9.15Z"/>
  <path class="cls-2" d="m762.36,639.8v7.77h-32.4c-.25-2.66-.45-4.86-.72-7.77h33.12Z"/>
  <path class="cls-2" d="m800.51,439.91c.08-2.55-1.78-5.22.61-7.81h31.87c-.14,2.94-.28,5.75-.42,8.56-10.69-.25-21.38-.5-32.07-.75Z"/>
  <path class="cls-2" d="m730.12,583.9v-7.06h32.19v7.95c-10.34,0-20.59,0-30.84,0-.45-.3-.9-.59-1.35-.89Z"/>
  <path class="cls-1" d="m594.24,372.14c-14.85-2.35-16.35,9.61-20.16,18.95-1.68,4.12-5.01,7.72-3.99,12.73-2.31,1.68-4.35,3.43-2.89,6.58-1.07,1-2.07,1.93-1.74,1.63-4.27,11.27-7.95,20.96-11.63,30.65-3.19-3.92.48-7.29,1.59-10.22,7.6-20.16,15.86-40.07,23.97-60.22,5.08-1.19,9.92-2.25,14.85-.1Z"/>
  <path class="cls-2" d="m882.27,478.36c-1.62-1.74-1.25-3.65-.47-5.58,3.57.07,7.14.14,10.71.21,2.87,1,5.73,2,8.65,3.01,1.36,6.24-2.65,8.38-6.83,10.5-3.41-1.78-6.59-3.44-9.77-5.1-.76-1.01-1.53-2.03-2.29-3.05Z"/>
  <path class="cls-2" d="m568.88,533.62v8.67c-6.3.11-12.38.94-18.98-1.38,1.47-4.32-4.63-14.32,8.14-8.68,3.07,1.36,6.93.94,10.84,1.39Z"/>
  <path class="cls-2" d="m575.44,428.52c.93-2.92,1.69-5.31,2.67-8.42h17.63c.62,2.39,3.4,4.85,1.45,8.42h-21.75Z"/>
  <path class="cls-2" d="m488.37,586.8c2.86-3.77-2.74-6.53.29-10.34,5.06,1.31,11.06-1.33,16.96,2.13-.63,12.99-10.11,7.63-17.25,8.21Z"/>
  <path class="cls-2" d="m278.23,482.92c-.69-.27-1.38-.54-2.07-.8-.67-.13-1.35-.26-2.02-.39-1.05-2.86-2.11-5.72-3.32-9.01,6.97-3.39,12.08.32,17.33,3.2,0,1.72,0,3.45,0,5.29-1.8.98-3.46,1.89-3.02,1.65-3.94,1.47-4.89-2.15-6.89.06Z"/>
  <path class="cls-2" d="m730.42,614.8c-.12-1.74-.23-3.48-.37-5.53h29.53c0,1.76,0,3.22,0,4.68-9.72.28-19.44.57-29.15.85Z"/>
  <path class="cls-2" d="m287.52,531.43c.59.68,1.18,1.35,1.76,2.02-2.17,1.44-1.64,3.67-1.69,5.73-1.5.75-3,1.49-4.49,2.23-3.58-.1-7.16-.2-10.74-.3-.15-2.57-.3-5.14-.47-8.25,2.27-.35,4.35-.66,6.42-.98,3.07-.16,6.14-.31,9.2-.47Z"/>
  <path class="cls-2" d="m640.25,637.22c1.54-.49,3.08-.98,4.62-1.46,3.33,1.34,7.99-.01,9.51,4.25-.26,5.33-6.33,3.31-7.69,6.97-2.66,1.49-5.43,1.33-8.23.52.6-3.43,1.2-6.86,1.8-10.29Z"/>
  <path class="cls-1" d="m438.97,518.46c3.03,2.91-.91,5.95.52,8.66-1.59,1.71-2.9,3.12-4.4,4.74-1.12.23-2.45.52-4.07.85-1.23,2.41-5.46,3.43-3.89,7.47,11.78,4.04,16.02-6.62,23.16-11.54-4.68,10.5-12.5,15.33-24.56,13.4v-7.98c6.76-2.96,12.23-7.41,13.24-15.61Z"/>
  <path class="cls-1" d="m479.33,577.03c-4.02,4.39-8.03,8.79-11.83,12.94-3.55,14.97,5.88,20.53,17.33,24.63-1.99-.08-4.25.42-5.93-.34-9.44-4.3-16.1-10.9-13.92-22.19,1.48-7.67,6.58-12.87,14.35-15.04Z"/>
  <path class="cls-2" d="m519.48,443.49c-1.74.09-3.49.18-5.74.3v-11.16c1.5-.23,3.59-.55,5.67-.86,2.56,0,5.12,0,8.24,0,.42,1.18.97,2.75,1.35,3.84-2.08,1.88-3.64,3.29-5.5,4.97h-4.43c.16,1.11.28,2.01.41,2.91Z"/>
  <path class="cls-1" d="m538.84,578.86c-4.95,6.29-9.89,12.58-14.24,18.1,0,10.8,0,20.75,0,30.69-8.55-15.11-.75-41.83,14.24-48.79Z"/>
  <path class="cls-2" d="m522.98,371.18c1.03.52,2.05,1.04,3.07,1.56-.96,2.7,4.61,3.91,1.46,7.22-3.15.27-6.47.56-9.79.85h-4.39c0-2.31,0-4.25,0-6.17.95-.77,1.9-1.54,1.94-1.56,3.27-.8,5.49-1.35,7.71-1.89Z"/>
  <path class="cls-1" d="m650.76,577.83c5.94.24,6.77,4,6.26,8.41-5.07,5.22-10.25,3.49-14.96.52-3.21-2.02-3.11-5.91-2.92-9.42.01-.2.28-.51.48-.55.2-.04.46.19.69.29.66,5.28,5.2,7.47,8.11,10.62,3.56.27,5.1-1.67,6.23-4.17-1.33-1.96-2.61-3.83-3.88-5.7Z"/>
  <path class="cls-2" d="m650.76,577.83c1.27,1.87,2.55,3.74,3.88,5.7-1.13,2.51-2.67,4.44-6.23,4.17-2.91-3.15-7.45-5.34-8.11-10.62,3.52-.18,7.11-1.38,10.46.74Z"/>
  <path class="cls-1" d="m492.21,505.37c1.09-.31,2.18-.62,3.53-1.01.34,2.08.58,3.56.86,5.27,2.06,1.91,4.26,3.93,6.68,6.18-.06.83-.15,2.04-.24,3.32,2.15,2.31,4.29,4.6,6.42,6.9,0,1.8,0,3.58,0,5.36-5.75-8.68-11.5-17.35-17.25-26.03Z"/>
  <path class="cls-1" d="m519.48,443.49c-.13-.9-.25-1.81-.41-2.91h4.43c1.86-1.68,3.43-3.1,5.5-4.97-.38-1.09-.94-2.66-1.35-3.84-3.12,0-5.68,0-8.24,0,2.23-3.27,5.34-3.46,8.77-2.51,2.53.7,3.73,2.31,3.99,5,.46,4.78-3.41,5.37-6.32,6.81-2.03,1-4.24,1.63-6.37,2.42Z"/>
  <path class="cls-1" d="m572.89,511.04c9.33,3.83,12.21,10.79,9.83,20.95-4.44-1.69-5.2,4.28-9.15,4.28,1.56-5.26,9.93-6.5,7.7-14.34-1.44-5.09-8.3-5.26-8.37-10.89Z"/>
  <path class="cls-1" d="m646.68,646.98c1.37-3.66,7.44-1.64,7.69-6.97-1.53-4.26-6.18-2.91-9.51-4.25,1.8-.93,3.6-1.85,5.91-3.04,2.32,1.55,4.77,3.19,7,4.69-.22,2.28-.38,3.95-.55,5.77-3.5,1.47-6.22,4.72-10.54,3.8Z"/>
  <path class="cls-1" d="m332.84,472.43c-.44,3.43-3.25,2.75-5.19,3.06-5.61,4.78-11.62,8.98-12.48,17.08-1.31.34-2.49.65-3.67.95,3.24-10.95,9.67-18.67,21.34-21.09Z"/>
  <path class="cls-1" d="m615.9,428.28c-5.5-.97-2.63-6.16-4.4-9.14-2.77-4.66-6.98-9.05-6.13-15.46-3.12-2.57-4.13-5.88-2.78-9.82,4.44,11.47,8.88,22.94,13.31,34.41Z"/>
  <path class="cls-1" d="m850.77,524.44c5.97,5.19,11.93,10.37,18.2,15.82,2.43,0,5.2,0,7.96,0-5.32,5.35-10.47,1.74-14.24-1.48-4.66-3.98-8.01-9.5-11.92-14.35Z"/>
  <path class="cls-1" d="m620,601.7c-2.24-1.59-.57-3.79-1.07-5.77,1-.81,1.95-1.58,2.81-2.29.45-1.85.88-3.56,1.41-5.71,6.82,1.73,7.72-6.32,12.95-7.37-.96,7.66-10.29,7.6-12.78,13.89-.98,2.47-2.21,4.84-3.32,7.26Z"/>
  <path class="cls-1" d="m483.93,425.4c7.84,6.86,14.27,15.84,25.81,17.12-9.33,1.64-22.37-7.01-25.81-17.12Z"/>
  <path class="cls-1" d="m619.18,580.56c1.12,4.4-2.45,6.41-4.96,8.37-4.85,3.79-5.43,10.22-9.66,14.25.75-10.21,7.64-16.45,14.62-22.63Z"/>
  <path class="cls-1" d="m312.66,526.07c4.59,1.16,6.29,5.54,9.04,8.57,5.45,6.01,12.29,6.53,19.51,6.54-8.25,4.95-23.01-2.86-28.55-15.1Z"/>
  <path class="cls-1" d="m267.74,536.24c-2.77.31-3.54-2.25-5.19-3.71-1.19-.16-2.41-.32-4.1-.54-3.14-5.35-9.95-9.37-7.11-17.54,1.85,9.99,9.53,15.59,16.41,21.79Z"/>
  <path class="cls-1" d="m517.72,380.81c3.32-.29,6.64-.58,9.79-.85,3.15-3.32-2.42-4.53-1.46-7.22,1.73.63,3.46,1.26,5.02,1.82.61,3.18,1.44,6.18-1.34,7.74-4.14,2.33-8.27,1.13-12.02-1.49Z"/>
  <path class="cls-1" d="m800.51,439.91c10.69.25,21.38.5,32.07.75-10.73,1.38-21.45,2.75-32.07-.75Z"/>
  <path class="cls-1" d="m495.98,394.06q-1.23-2.55,7.76-13.62c2.08,0,4.39,0,6.7,0-6.03,3.26-12.14,6.42-14.46,13.61Z"/>
  <path class="cls-1" d="m502.43,497.58c-6.42-3.06-7.01-10.55-11.6-15-.92-1.04-3.69.17-3.15-2.72,9.64,1.98,10.13,11.57,14.75,17.72Z"/>
  <path class="cls-1" d="m358.65,491.74c.96.26,1.93.52,2.65.72,1.49,8.78,2.18,17.09.45,25.43-.26,1.26.01,3.01-2.23,2.52,2.05-9.63,2.79-19.22-.88-28.67Z"/>
  <path class="cls-1" d="m567.22,645.65c5.52-4.74,11.03-9.49,16.55-14.23-3.57,7.01-7.98,13.04-16.55,14.23Z"/>
  <path class="cls-1" d="m573.72,481.48c4.79-.41,9.57-.82,14.11-1.2.98-2.46,1.87-4.7,2.76-6.94,2.52,5.13-1.13,7.67-4.21,10.45-4.32-.79-8.49-1.55-12.66-2.31Z"/>
  <path class="cls-1" d="m790.45,502.61c4.96-1.88,3.68,3.66,5.1,5.24,3.56,3.94,5.19,9.61,7.59,14.59-4.23-6.61-8.46-13.22-12.69-19.82Z"/>
  <path class="cls-1" d="m730.42,614.8c9.72-.29,19.44-.57,29.15-.85.01,2.78-2.18,2.01-3.51,1.91-8.54-.61-17.19,1.44-25.64-1.06Z"/>
  <path class="cls-1" d="m494.64,376.46c-2.81,4.82-6.76,8.54-11.3,11.68,2.38-6.47,8.35-12.63,11.3-11.68Z"/>
  <path class="cls-1" d="m565.59,633.96c.53.74,1.06,1.47,1.37,1.91-3.07,2.53-6.34,5.22-9.65,7.95,0,1.58,0,2.96,0,4.33-4.43-8.92,3.44-10.67,8.28-14.19Z"/>
  <path class="cls-1" d="m255.16,474.54c-4.69,4.94-9.39,9.88-14.08,14.82,2.62-6.92,6.6-12.53,14.08-14.82Z"/>
  <path class="cls-1" d="m881.82,513.5c4.1.3,8.19.6,12.77.94.2,4.86,1.38,9.63-.62,14.37-.25-4.27-.49-8.53-.73-12.7-3.92-1.74-8.32,1.3-11.82-1.79-.08-.07-.13-.31-.08-.38.12-.17.31-.3.48-.44Z"/>
  <path class="cls-1" d="m873.85,532.86c-2.16-.31-4.32-.62-6.66-.95-.29-1.73-.53-3.2-.89-5.36-.65-.49-1.75-1.33-2.8-2.12,0-2.15,0-4.09,0-6.02,2.04,5.82,5.68,10.5,10.34,14.45Z"/>
  <path class="cls-1" d="m564.13,496.04c-4.29-2.78-1.38-6.92-2.35-10.88,3.81.44,4.01-6.68,8.94-3.4-2.49,2.03-4.98,4.06-7.66,6.24.37,2.77.72,5.4,1.07,8.04Z"/>
  <path class="cls-1" d="m278.23,482.92c2-2.21,2.95,1.41,6.89-.06-.44.24,1.22-.67,3.02-1.65,0-1.85,0-3.57,0-5.29,2.19-.17,2.73,1.32,3.11,2.91-3.71,7.5-8.78,9.05-13.02,4.09Z"/>
  <path class="cls-1" d="m328.57,487.12c2.27-5.64,8.09-6.73,12.45-9.68-1.7,6.39-7.84,7.04-12.45,9.68Z"/>
  <path class="cls-1" d="m897.04,594.24c-.21-7.28,5.27-11.82,8.41-17.49.81,1.4.84,1.42-2.58,7.56-1.87,3.35-3.88,6.63-5.83,9.94Z"/>
  <path class="cls-1" d="m884.59,589.68c-2.25,5.81-.91,13.26-7.74,16.97,2.58-5.66,5.16-11.32,7.74-16.97Z"/>
  <path class="cls-1" d="m678.9,413.32c1.78-5.38,6.51-8.31,10.1-12.18-.88,6.13-5.74,8.95-10.1,12.18Z"/>
  <path class="cls-1" d="m368.9,484.41c-5.37-1.54-8.43-5.65-11.19-10.08,5.28,1.65,8.44,5.64,11.19,10.08Z"/>
  <path class="cls-1" d="m489.23,613.88c2.33,3.04,8.63,3.54,6.18,9.64-3.96-2-5.66-5.44-6.18-9.64Z"/>
  <path class="cls-1" d="m473.24,636.92c-2.03.11-4.06.23-6.06.34-2.41,3.75,2.15,5.26,2.37,8.07-5.08-1.31-5.02-4.93-4.34-9.24,2.93-.25,5.62-1.76,8.03.83Z"/>
  <path class="cls-1" d="m563.18,472.8c-4.22,3.94-8.43,7.88-12.65,11.81,2.32-5.96,5.65-10.86,12.65-11.81Z"/>
  <path class="cls-1" d="m812.17,535.88c4.37,5.69,9.98,8.66,17.3,7.87-7.66,1.53-14.67,1.64-17.3-7.87Z"/>
  <path class="cls-1" d="m356.89,541.1c4.48-3.93,8.95-7.86,13.42-11.78-2.61,6.05-7.25,9.79-13.42,11.78Z"/>
  <path class="cls-1" d="m238.38,498.59c0,6.14.01,12.29.02,18.42-2.09-6.14-2.02-12.28-.02-18.42Z"/>
  <path class="cls-1" d="m872.58,615.63c1.43-.4,2.45.29,2.04,1.6-.39,1.25-1.6,2.24-2.98,4.04-.27,1.34,1.17,4.83-3.23,4.61,1.39-3.42,2.79-6.83,4.18-10.25Z"/>
  <path class="cls-1" d="m572.95,621.65c1.37,5.89-.77,9.91-6.44,12.03,2.15-4.01,4.3-8.02,6.44-12.03Z"/>
  <path class="cls-1" d="m547.35,635.81c-6.52.29-8.62-3.38-8.29-9.23,2.61,3.22,4.1,7.45,8.29,9.23Z"/>
  <path class="cls-1" d="m880.28,381.25c2.22-.54,4.44-1.13,6.73.68.43,2.19.89,4.57,1.35,6.94-1-1.65-2.01-3.3-2.49-4.08-2.42-1.53-4-2.54-5.59-3.55Z"/>
  <path class="cls-1" d="m640.84,440.6c3.92-.27,7.85-.53,11.77-.79-3.74,2.94-7.57,4.63-11.77.79Z"/>
  <path class="cls-1" d="m527.22,632.94c3.59,3.8,7.18,7.6,10.76,11.39-5.12-2.35-9.11-5.77-10.76-11.39Z"/>
  <path class="cls-1" d="m602.24,430.49c.45-.99.91-1.98,1.33-2.9,1.12,1.61,2.33,3.34,3.61,5.19-.67,1.2-1.43,2.56-2.2,3.91-1.52-1.8-3.52-3.39-2.74-6.2Z"/>
  <path class="cls-1" d="m741.23,541c3.82-.02,7.63-.03,11.44-.04-3.84,2.27-7.78,3.13-11.92.82-.07-.04-.12-.3-.06-.36.15-.17.36-.28.54-.42Z"/>
  <path class="cls-1" d="m640.25,637.22c-.6,3.43-1.2,6.86-1.8,10.29-.39-.24-.77-.47-1.16-.7-2.02-2.55-.83-5.45-.89-8.2,1.28-.46,2.57-.92,3.85-1.38Z"/>
  <path class="cls-1" d="m601.33,390.71c-2.8-4.44-6.01-8.72-5.5-14.42,1.83,4.81,3.67,9.62,5.5,14.42Z"/>
  <path class="cls-1" d="m868.56,647.44c4.8.01,9.6.03,14.4.04-4.81,1.92-9.61,2.37-14.4-.04Z"/>
  <path class="cls-1" d="m785.24,440.85c3.59-.04,7.19-.08,10.78-.12-3.58,1.29-7.15,3.82-10.78.12Z"/>
  <path class="cls-1" d="m865.27,612.23c1.43-.01,2.87-.02,4.29-.03,1.82,2.26.26,3.72-1.4,5.62-1.05-2.03-1.97-3.81-2.9-5.6Z"/>
  <path class="cls-1" d="m733.72,443.14c9.38-.06,18.76-.11,28.14-.16-9.38.06-18.76.11-28.14.16Z"/>
  <path class="cls-1" d="m798.42,647.37c4.64,0,9.29,0,13.93.02-4.65,1.99-9.29,2.62-13.93-.02Z"/>
  <path class="cls-1" d="m652.44,372.33c-4.01,0-8.01,0-12.01-.01,4.01-1.87,8.01-2.06,12.01.01Z"/>
  <path class="cls-1" d="m621.4,643.53c3.39.38,7.02.29,8.61,4.28-3.34-.49-6.77-.78-8.61-4.28Z"/>
  <path class="cls-1" d="m407.52,516.07c-.03-8.34-.05-16.68-.08-25.01.03,8.34.05,16.67.08,25.01Z"/>
  <path class="cls-1" d="m582.86,400.76c-1.79-2.34-.56-4.48.28-7.12,1.38.43,2.48.77,3.58,1.11-1.29,2.01-2.57,4.01-3.86,6.01Z"/>
  <path class="cls-1" d="m892.51,472.99c-3.57-.07-7.14-.14-10.71-.21,3.61-2.05,7.18-1.96,10.71.21Z"/>
  <path class="cls-1" d="m522.98,371.18c-2.22.55-4.44,1.09-7.71,1.89-.04.03-.99.8-1.94,1.56,0-1.12,0-2.24,0-3.46,3.69,0,6.67,0,9.65,0Z"/>
  <path class="cls-1" d="m584.65,539.78c1.05-3.47,3.41-5.52,6.9-6.33-1.26,3.24-3.38,5.55-6.9,6.33Z"/>
  <path class="cls-1" d="m578.84,411.65v-7.01c1.13-.52,2.32-1.07,3.51-1.62-1.17,2.88-2.34,5.76-3.51,8.63Z"/>
  <path class="cls-1" d="m594.01,516.26c-3.78-1.21-5.15-4.66-7.05-7.6,3.89,1.11,5.85,4.01,7.05,7.6Z"/>
  <path class="cls-1" d="m346.51,478.98c2.21,1.96,4.43,3.92,6.64,5.87-2.29-1.87-7.43-.52-6.64-5.87Z"/>
  <path class="cls-1" d="m536.12,605.87c-1.78-3.8-1.79-7,2.9-8.61-.97,2.87-1.93,5.74-2.9,8.61Z"/>
  <path class="cls-1" d="m287.52,531.43c-3.07.16-6.14.31-9.2.47,2.94-2.71,5.93-4.32,9.2-.47Z"/>
  <path class="cls-1" d="m503.63,371.95c-1.01,4.75-5.21,2.53-7.9,3.6,1.62-3.43,5.11-2.74,7.9-3.6Z"/>
  <path class="cls-1" d="m397.18,529.29c2.38,2.78,4.76,5.55,7.14,8.33-3.8-1.56-5.73-4.72-7.14-8.33Z"/>
  <path class="cls-1" d="m485.25,607.47c-2.01-2.06-4.02-4.12-6.02-6.17,3.42.68,6.47,1.72,6.02,6.17Z"/>
  <path class="cls-1" d="m272.37,541.13c3.58.1,7.16.2,10.74.3-3.62,1.37-7.22,2-10.74-.3Z"/>
  <path class="cls-1" d="m898.43,540.34c2.38-2.27,4.75-4.54,7.12-6.8-.13,4.62-3.5,5.84-7.12,6.8Z"/>
  <path class="cls-1" d="m254.25,491.55c.16-1.71.32-3.42.54-5.68,1.84-.31,3.49-.59,5.14-.86-1.9,2.18-3.79,4.36-5.68,6.54Z"/>
  <path class="cls-1" d="m509.23,632.65c-1.89-3.12-1.33-6.31-.24-9.51.08,3.17.16,6.34.24,9.51Z"/>
  <path class="cls-1" d="m689.56,399.01c-.72-3.19-1.18-6.37.35-9.47.91,3.2,1.46,6.38-.35,9.47Z"/>
  <path class="cls-1" d="m345.34,541.12c3.15-.17,6.38-1.21,9.36.77-3.18.49-6.42,1.62-9.36-.77Z"/>
  <path class="cls-1" d="m851.28,585.71c4.79.4,3.13,3.96,3.26,6.64-1.09-2.21-2.17-4.43-3.26-6.64Z"/>
  <path class="cls-1" d="m677.19,481.68c1.66,2.79,1.17,5.64.29,8.51-2.06-2.77-1.64-5.62-.29-8.51Z"/>
  <path class="cls-1" d="m848.62,577.15c.76,2.71,1.51,5.42,2.27,8.13-1.55-2.49-4.6-4.56-2.27-8.13Z"/>
  <path class="cls-1" d="m869.56,592.32c-5.39.14-1.95-3.94-2.83-5.94.95,1.98,1.89,3.96,2.83,5.94Z"/>
  <path class="cls-1" d="m546.16,589.04c.83-2.81,2.43-4.97,5.21-6.12.26,3.75-2.75,4.7-5.21,6.12Z"/>
  <path class="cls-1" d="m588.21,605.08c-.73-2.52-1.46-5.05-2.19-7.57.73,2.53,1.46,5.05,2.19,7.57Z"/>
  <path class="cls-1" d="m774.83,576.96c.05,2.5.11,5.01.15,7.51-2.39-2.46-1.96-4.97-.15-7.51Z"/>
  <path class="cls-1" d="m537.32,622.51c-3.94-.89-2.13-3.2-1.29-5.26.43,1.76.86,3.51,1.29,5.26Z"/>
  <path class="cls-1" d="m801.18,372.48c-.06,2.36-.13,4.72-.19,7.07-1.72-2.41-2.01-4.77.19-7.07Z"/>
  <path class="cls-1" d="m811.14,511.53c-2.73-1.08-3.28-3.66-4.12-6.03,2.33,1.36,3.75,3.34,4.12,6.03Z"/>
  <path class="cls-1" d="m857.06,480.91c.14,3.19-2.29,4.57-4.37,6.18.19-2.96,2.21-4.62,4.37-6.18Z"/>
  <path class="cls-1" d="m412.39,528.86c-3.02-.78-4.45-2.49-3.29-5.69,1.1,1.9,2.19,3.79,3.29,5.69Z"/>
  <path class="cls-1" d="m866.23,585.71c-4.08-.7-2.92-3.39-2.24-5.9.75,1.97,1.49,3.93,2.24,5.9Z"/>
  <path class="cls-1" d="m578.28,503.88c-2.53,3.13-2.83.24-3.62-1.34,1.21.45,2.42.89,3.62,1.34Z"/>
  <path class="cls-1" d="m503.4,641.84c.18-2.3,1.61-3.64,3.54-4.59.58,2.89-1.3,3.88-3.54,4.59Z"/>
  <path class="cls-1" d="m251.87,497.55c-.42-2.24-2.61-5.14,2.03-5.5-.68,1.83-1.36,3.67-2.03,5.5Z"/>
  <path class="cls-1" d="m882.27,478.36c.76,1.02,1.53,2.03,2.29,3.05-2.02.09-2.47-1.34-2.8-2.88,0-.02.33-.11.51-.17Z"/>
  <path class="cls-1" d="m287.6,539.19c.05-2.06-.48-4.3,1.69-5.73,1.32,2.47,1.54,4.61-1.69,5.73Z"/>
  <path class="cls-1" d="m853.2,442.93c3.17.05,6.34.09,9.51.14-3.17-.05-6.34-.09-9.51-.14Z"/>
  <path class="cls-1" d="m688.77,387.5c-1.64-.76-2.44-1.98-2.04-3.82,2.03.56,2.76,1.8,2.04,3.82Z"/>
  <path class="cls-1" d="m354.52,485.73c2.31.06,3.64.93,2.87,3.51-.96-1.17-1.91-2.34-2.87-3.51Z"/>
  <path class="cls-1" d="m616.44,639.83c2.81-.47,3.89,1.37,4.72,3.54-2.68.3-4.06-1.15-4.72-3.54Z"/>
  <path class="cls-1" d="m570.65,501.09c-2.3.36-4.14.01-4.41-2.81,1.47.94,2.94,1.87,4.41,2.81Z"/>
  <path class="cls-1" d="m686.24,383.17c-3.34.81-2.18-1.66-2.31-3.18,1.85.28,2.56,1.38,2.31,3.18Z"/>
  <path class="cls-1" d="m806.25,504.63c-1.25-.89-2.42-1.81-1.61-3.61,1.93.58,1.73,2.12,1.61,3.61Z"/>
  <path class="cls-1" d="m861.36,477.66c-.44,2.01-1.45,3.22-3.72,2.69.96-1.29,1.45-3.23,3.72-2.69Z"/>
  <path class="cls-1" d="m326.04,490.47c-.17-.62-.34-1.24-.58-2.13.94-.26,1.77-.49,2.6-.71-.2,1.28-.05,2.82-2.02,2.84Z"/>
  <path class="cls-1" d="m586.88,619.73c.49-.87.99-1.75,1.48-2.62,1.53,2.01-.64,1.94-1.48,2.62Z"/>
  <path class="cls-1" d="m592.08,532.9c-.25-1.71.03-3.13,2.01-3.58-.67,1.19-1.34,2.38-2.01,3.58Z"/>
  <path class="cls-1" d="m694.48,543.91c2.2,0,4.4,0,6.59,0-2.2,0-4.4,0-6.59,0Z"/>
  <path class="cls-1" d="m678.58,543.9c1.92,0,3.84.01,5.76.02-1.92,0-3.84-.01-5.76-.02Z"/>
  <path class="cls-1" d="m504.81,500.44c-1.76.06-2.84-.42-1.98-2.46.8.68,1.6,1.36,2.4,2.03-.14.14-.28.28-.42.42Z"/>
  <path class="cls-1" d="m855.9,593.73c2.18.27,1.42,1.66,1.08,2.87-1.41-.57-1.81-1.51-1.08-2.87Z"/>
  <path class="cls-1" d="m653.46,543.91c1.09,0,2.19,0,3.27,0-1.09,0-2.18,0-3.27,0Z"/>
  <path class="cls-1" d="m614.44,637.51c1.82-.48,1.93.44,1.49,1.82-1.6.3-2.13-.28-1.49-1.82Z"/>
  <path class="cls-1" d="m863.63,475.79c.28,1.75-.62,1.71-1.83,1.21.61-.41,1.22-.81,1.83-1.21Z"/>
  <path class="cls-1" d="m274.13,481.73c.67.13,1.35.26,2.02.39-.68-.13-1.35-.26-2.02-.39Z"/>
  <path class="cls-1" d="m610.44,633.22c1.25-.25,1.61.2,1.08,1.36-.36-.46-.72-.91-1.08-1.36Z"/>
  <path class="cls-1" d="m829.07,410.63c.26-.35.53-.7.79-1.05-.26.35-.53.7-.79,1.05Z"/>
  <path class="cls-1" d="m584.76,507.17c-.38-.26-.76-.51-1.14-.77.38.26.76.51,1.14.77Z"/>
  <path class="cls-1" d="m730.12,583.9c.45.3.9.6,1.35.89-1.13.73-1.44.23-1.35-.89Z"/>
  <path class="cls-1" d="m835.72,584.83c.35-.35.7-.7,1.05-1.05-.35.35-.7.7-1.05,1.05Z"/>
  <path class="cls-1" d="m714.48,440.63c.06.34.12.68.18,1.02-.27-.18-.55-.35-.82-.53l.64-.49Z"/>
  <path class="cls-1" d="m795.82,585.19c1.09-.69,1.76-.68,1.46.89-.49-.3-.97-.6-1.46-.89Z"/>
  <path class="cls-1" d="m815.31,514.6c-.28.31-.57.62-.85.93-.18-.37-.36-.75-.54-1.12.47.06.93.12,1.39.18Z"/>
  <path class="cls-1" d="m809.83,532.77c.3.45.61.9.91,1.35-.31-.45-.61-.9-.91-1.35Z"/>
  <path class="cls-1" d="m814.04,585.73c.14-1.48.83-1.29,1.69-.54-.56.18-1.13.36-1.69.54Z"/>
  <path class="cls-1" d="m354.74,473.05c-.25.19-.5.37-.76.56-.13-.39-.26-.78-.38-1.16.38.2.76.4,1.14.6Z"/>
  <path class="cls-1" d="m623.46,532.11c-.34-.08-.68-.16-1.02-.24.14-.28.28-.57.42-.85.2.36.4.72.6,1.08Z"/>
  <path class="cls-1" d="m690.18,531.37c-1.21-.04-1.36-.43-.39-1.19.13.4.26.79.39,1.19Z"/>
  <path class="cls-1" d="m870.58,595.7c-.05-.47-.1-.95-.15-1.42.05.48.1.95.15,1.42Z"/>
  <path class="cls-1" d="m787.06,505.37c-1.08-.56-.85-.92.17-1.16-.06.39-.11.77-.17,1.16Z"/>
  <path class="cls-1" d="m707.86,543.94c.81,0,1.63-.02,2.43-.03-.81,0-1.62.02-2.43.03Z"/>
  <path class="cls-1" d="m721.25,543.72c.55.05,1.1.11,1.65.16-.55-.05-1.1-.11-1.65-.16Z"/>
  <path class="cls-1" d="m676.87,474.02c.19.17.19.34,0,.51-.24.09-.48.19-.72.3-.07-.16-.13-.33-.2-.49.31-.11.61-.21.92-.32Z"/>
  <path class="cls-1" d="m392.43,472.53s.06.18.06.18c-.11.02-.23.03-.34.05.09-.08.19-.16.28-.23Z"/>
  <polygon class="cls-1" points="865.1 442.93 865.17 442.92 865.16 443.13 865.1 442.93"/>
  <polygon class="cls-1" points="627.96 543.78 628.2 543.61 628.33 543.88 628.08 544.03 627.96 543.78"/>
  <polygon class="cls-1" points="689.31 543.7 689.4 543.44 689.51 543.69 689.31 543.7"/>
  <polygon class="cls-1" points="600.4 428.23 600.68 428.26 600.68 428.51 600.43 428.48 600.4 428.23"/>
  <path class="cls-1" d="m777.49,576.47l-.18.14s-.18-.13-.18-.13c.12,0,.24,0,.36,0Z"/>
  <path class="cls-1" d="m819.32,576.5s-.31,0-.31,0c.11,0,.21,0,.31,0Z"/>
  <path class="cls-1" d="m827.61,576.61s-.17,0-.17,0c.06,0,.11,0,.17,0Z"/>
  <path class="cls-1" d="m730.89,410.59s-.03-.09-.03-.09c-.08.07-.16.14-.25.21.09-.04.18-.08.27-.12Z"/>
  <path class="cls-1" d="m550.83,638.32l-.33-.02s-.07-.33-.06-.33.34.02.34.02l.05.34Z"/>
  <path class="cls-1" d="m486.49,644.74v-5.12c.17,0,.33,0,.5,0v5.14c-.17,0-.33-.01-.5-.02Z"/>
</svg>